<svg xmlns="http://www.w3.org/2000/svg" width="200" height="200" viewBox="0 0 200 200"><defs><style>.a{fill:#e5eff7;stroke-width:2px;}.a,.j{stroke:#fff;stroke-miterlimit:10;}.b{fill:#dddede;}.c{fill:#232930;}.d,.p{fill:#e86e43;}.e{fill:#475161;}.f,.k{fill:#fff;}.g{fill:#ffba4f;}.h{fill:#df9e46;}.i{fill:#fdaf20;}.j,.s{fill:none;}.j{stroke-width:0.314px;opacity:0.41;}.k{opacity:0.11;}.l{fill:#1a1718;opacity:0.07;}.m{fill:#ffe984;}.n{fill:#353c45;}.o{fill:#d5dfe4;opacity:0.68;}.p,.q{fill-rule:evenodd;}.p{opacity:0.84;}.q{fill:#cd592f;}.r{stroke:none;}</style></defs><g transform="translate(-514.992 -366.213)"><g class="a" transform="translate(514.992 366.213)"><circle class="r" cx="100" cy="100" r="100"/><circle class="s" cx="100" cy="100" r="99"/></g><path class="b" d="M624.106,455.687a40.351,40.351,0,1,1-40.353-40.35A40.351,40.351,0,0,1,624.106,455.687Z"/><path class="c" d="M583.753,415.337a40.35,40.35,0,1,1-40.349,40.35,40.351,40.351,0,0,1,40.349-40.35m0-3.546a44.167,44.167,0,0,0-8.842.892,43.671,43.671,0,0,0-15.7,6.607,43.922,43.922,0,0,0,7.458,76.843,43.615,43.615,0,0,0,8.244,2.56,44.279,44.279,0,0,0,17.686,0,43.728,43.728,0,0,0,15.7-6.607,44.018,44.018,0,0,0,15.9-19.311,43.694,43.694,0,0,0,2.559-8.245,44.278,44.278,0,0,0,0-17.686,43.67,43.67,0,0,0-6.607-15.7,43.813,43.813,0,0,0-36.4-19.351Z"/><rect class="d" width="1.807" height="22.948" transform="translate(582.911 457.177) rotate(-30)"/><path class="e" d="M583.808,453.407h0l0,0-.01-.01-13.406-13.882a2.037,2.037,0,1,0-2.96,2.785l13.456,13.933a.519.519,0,0,0,.107.081,2.023,2.023,0,0,0,2.816-2.9Z"/><path class="c" d="M603.865,451.554h-.005l-.014,0-17.425,2.174a1.848,1.848,0,0,0-1.027,3.333,1.865,1.865,0,0,0,1.452.341l17.488-2.182a.438.438,0,0,0,.119-.033,1.82,1.82,0,0,0,1.14-.7,1.847,1.847,0,0,0-1.728-2.93Z"/><circle class="b" cx="3.098" cy="3.098" r="3.098" transform="translate(581.292 453.139)"/><path class="c" d="M584.389,453.139a3.1,3.1,0,1,1-3.1,3.1,3.1,3.1,0,0,1,3.1-3.1m0-2.29a5.388,5.388,0,1,0,5.388,5.388,5.394,5.394,0,0,0-5.388-5.388Z"/><path class="c" d="M584.421,427.08h0a1.036,1.036,0,0,1-1.033-1.033v-6.108a1.036,1.036,0,0,1,1.033-1.032h0a1.036,1.036,0,0,1,1.032,1.032v6.108A1.036,1.036,0,0,1,584.421,427.08Z"/><path class="c" d="M604.616,435.958h0a1.036,1.036,0,0,1,0-1.46l4.317-4.321a1.035,1.035,0,0,1,1.46,0h0a1.035,1.035,0,0,1,0,1.46l-4.317,4.321A1.035,1.035,0,0,1,604.616,435.958Z"/><path class="c" d="M612.531,456.242h0a1.037,1.037,0,0,1,1.032-1.034l6.108-.006a1.035,1.035,0,0,1,1.033,1.031h0a1.034,1.034,0,0,1-1.031,1.033l-6.108.007A1.037,1.037,0,0,1,612.531,456.242Z"/><path class="c" d="M604.134,475.8h0a1.034,1.034,0,0,1,1.459,0l4.326,4.312a1.035,1.035,0,0,1,0,1.46h0a1.034,1.034,0,0,1-1.459,0l-4.326-4.312A1.035,1.035,0,0,1,604.134,475.8Z"/><path class="c" d="M584.481,484.383h0a1.035,1.035,0,0,1,1.035,1.03l.013,6.108a1.035,1.035,0,0,1-1.031,1.034h0a1.035,1.035,0,0,1-1.034-1.03l-.013-6.108A1.035,1.035,0,0,1,584.481,484.383Z"/><path class="c" d="M564.193,476.607h0a1.036,1.036,0,0,1,0,1.46l-4.308,4.33a1.034,1.034,0,0,1-1.46,0h0a1.035,1.035,0,0,1,0-1.46l4.308-4.33A1.036,1.036,0,0,1,564.193,476.607Z"/><path class="c" d="M555.349,456.363h0a1.037,1.037,0,0,1-1.03,1.036l-6.107.019a1.035,1.035,0,0,1-1.036-1.029h0a1.035,1.035,0,0,1,1.029-1.036l6.108-.019A1.035,1.035,0,0,1,555.349,456.363Z"/><path class="c" d="M563.7,435.7h0a1.035,1.035,0,0,1-1.46.006l-4.334-4.3a1.035,1.035,0,0,1-.006-1.46h0a1.036,1.036,0,0,1,1.46-.005l4.335,4.3A1.035,1.035,0,0,1,563.7,435.7Z"/><path class="f" d="M584.533,415.365v80.681a.193.193,0,0,0-.033,0c-.027,0-.054,0-.081,0l-.15,0-.568,0c-.347,0-.7-.005-1.041-.013a40.351,40.351,0,0,1,0-80.675c.346-.008.694-.013,1.041-.013.267,0,.533,0,.8.008A.2.2,0,0,0,584.533,415.365Z"/><path class="e" d="M583.7,411.809a44.157,44.157,0,0,0-8.841.891,43.7,43.7,0,0,0-15.7,6.608A43.958,43.958,0,0,0,540.7,464.549a43.676,43.676,0,0,0,6.607,15.7,44.015,44.015,0,0,0,19.31,15.9,43.518,43.518,0,0,0,8.244,2.56,44.157,44.157,0,0,0,8.841.892c.3,0,.6,0,.894-.009v-3.547l-.095,0c-.027,0-.054,0-.081,0-.05,0-.1,0-.15,0l-.568,0c-.347,0-.7-.005-1.041-.013a40.351,40.351,0,0,1,0-80.675c.346-.008.694-.013,1.041-.013.267,0,.533,0,.8.008h.033l.062,0v-3.547C584.3,411.812,584,411.809,583.7,411.809Z"/><path class="d" d="M584.533,456.588V460.2l-.465-.86-1.223-2.146,1.541-.9Z"/><path class="e" d="M583.757,453.424h0l0,0-.009-.01-13.406-13.882a2.038,2.038,0,1,0-2.961,2.786l13.457,13.932a.489.489,0,0,0,.107.081,2.023,2.023,0,0,0,2.816-2.9Z"/><path class="f" d="M584.533,453.168v6.172a1.3,1.3,0,0,1-.227.011,2.069,2.069,0,0,1-.223-.011,3.084,3.084,0,0,1-2.834-2.773,2.924,2.924,0,0,1-.012-.313,3.1,3.1,0,0,1,2.349-3,2.79,2.79,0,0,1,.719-.093A1.314,1.314,0,0,1,584.533,453.168Z"/><path class="e" d="M583.588,453.25a3.027,3.027,0,0,1,.75-.093c.086,0,.173,0,.257.011v-2.3c-.084,0-.171-.006-.257-.006a5.387,5.387,0,1,0,0,10.775c.086,0,.173,0,.257-.007v-2.3c-.084.008-.171.011-.257.011a2.363,2.363,0,0,1-.239-.011,3.094,3.094,0,0,1-2.843-2.773,2.933,2.933,0,0,1-.015-.313A3.1,3.1,0,0,1,583.588,453.25Z"/><path class="e" d="M584.533,418.938v8.145a1,1,0,0,1-.164.014,1.037,1.037,0,0,1-1.033-1.033v-6.107a1.037,1.037,0,0,1,1.033-1.033A1,1,0,0,1,584.533,418.938Z"/><path class="e" d="M584.595,484.415v8.146a.893.893,0,0,1-.147.011h0a1.034,1.034,0,0,1-1.032-1.03l-.014-6.107a1.036,1.036,0,0,1,1.031-1.034A.888.888,0,0,1,584.595,484.415Z"/><path class="e" d="M564.141,476.625h0a1.034,1.034,0,0,1,0,1.46l-4.307,4.33a1.036,1.036,0,0,1-1.46,0h0a1.034,1.034,0,0,1,0-1.46l4.308-4.33A1.033,1.033,0,0,1,564.141,476.625Z"/><path class="e" d="M555.3,456.381h0a1.035,1.035,0,0,1-1.029,1.035l-6.108.019a1.034,1.034,0,0,1-1.035-1.029h0a1.034,1.034,0,0,1,1.029-1.035l6.108-.019A1.035,1.035,0,0,1,555.3,456.381Z"/><path class="e" d="M563.652,435.723h0a1.035,1.035,0,0,1-1.46.005l-4.335-4.3a1.035,1.035,0,0,1-.005-1.46h0a1.035,1.035,0,0,1,1.46-.005l4.335,4.3A1.035,1.035,0,0,1,563.652,435.723Z"/><path class="c" d="M584.533,410.917v1.775s.02,0,0,0v-1.774Z"/><path class="g" d="M648.388,490.032v4.139c0,.879-6.233,1.617-14.64,1.819-1.484.036-3.036.055-4.633.055-10.644,0-19.273-.839-19.273-1.874v-4.139Z"/><path class="h" d="M609.841,490.032v4.138c0,1.036,8.629,1.875,19.274,1.875s19.274-.839,19.274-1.875v-4.138Z"/><path class="i" d="M648.389,490.251c0,1.035-8.63,1.875-19.274,1.875s-19.274-.84-19.274-1.875,8.629-1.874,19.274-1.874S648.389,489.216,648.389,490.251Z"/><path class="i" d="M648.389,490.032c0,1.035-8.63,1.875-19.274,1.875s-19.274-.84-19.274-1.875,8.629-1.874,19.274-1.874S648.389,489,648.389,490.032Z"/><path class="j" d="M646.538,489.976c0,.784-7.8,1.419-17.423,1.419s-17.424-.635-17.424-1.419,7.8-1.419,17.424-1.419S646.538,489.192,646.538,489.976Z"/><path class="g" d="M646.538,485.121v4.138c0,.879-6.233,1.618-14.64,1.819-1.484.036-3.036.055-4.633.055-10.644,0-19.273-.839-19.273-1.874v-4.138Z"/><path class="h" d="M607.991,485.121v4.138c0,1.035,8.629,1.874,19.274,1.874s19.273-.839,19.273-1.874v-4.138Z"/><path class="k" d="M646.538,485.34c0,1.035-8.629,1.874-19.273,1.874s-19.274-.839-19.274-1.874,8.629-1.875,19.274-1.875S646.538,484.3,646.538,485.34Z"/><path class="g" d="M646.538,485.121c0,1.035-8.629,1.874-19.273,1.874s-19.274-.839-19.274-1.874,8.629-1.875,19.274-1.875S646.538,484.085,646.538,485.121Z"/><path class="i" d="M644.688,485.065c0,.783-7.8,1.419-17.423,1.419s-17.424-.636-17.424-1.419,7.8-1.42,17.424-1.42S644.688,484.281,644.688,485.065Z"/><path class="g" d="M655.277,480.13v4.139c0,.879-6.233,1.617-14.64,1.819-1.484.036-3.036.055-4.633.055-10.644,0-19.273-.839-19.273-1.874V480.13Z"/><path class="h" d="M616.73,480.13v4.138c0,1.036,8.629,1.875,19.274,1.875s19.274-.839,19.274-1.875V480.13Z"/><path class="k" d="M655.278,480.349c0,1.036-8.63,1.875-19.274,1.875s-19.274-.839-19.274-1.875,8.629-1.874,19.274-1.874S655.278,479.314,655.278,480.349Z"/><path class="i" d="M655.278,480.13c0,1.035-8.63,1.875-19.274,1.875s-19.274-.84-19.274-1.875,8.629-1.874,19.274-1.874S655.278,479.1,655.278,480.13Z"/><path class="j" d="M653.427,480.074c0,.784-7.8,1.419-17.423,1.419s-17.424-.635-17.424-1.419,7.8-1.419,17.424-1.419S653.427,479.29,653.427,480.074Z"/><path class="g" d="M644.688,475.522v4.138c0,.879-6.233,1.618-14.64,1.819-1.484.036-3.036.055-4.633.055-10.644,0-19.274-.839-19.274-1.874v-4.138Z"/><path class="h" d="M606.141,475.522v4.138c0,1.035,8.629,1.874,19.274,1.874s19.273-.839,19.273-1.874v-4.138Z"/><ellipse class="k" cx="19.274" cy="1.874" rx="19.274" ry="1.874" transform="translate(606.141 473.866)"/><path class="i" d="M644.688,475.522c0,1.035-8.629,1.874-19.273,1.874s-19.274-.839-19.274-1.874,8.629-1.875,19.274-1.875S644.688,474.486,644.688,475.522Z"/><path class="j" d="M642.838,475.466c0,.783-7.8,1.419-17.423,1.419s-17.424-.636-17.424-1.419,7.8-1.42,17.424-1.42S642.838,474.682,642.838,475.466Z"/><path class="g" d="M648.389,470.35v4.138c0,.88-6.234,1.618-14.641,1.819-1.484.036-3.036.055-4.633.055-10.644,0-19.273-.839-19.273-1.874V470.35Z"/><path class="h" d="M609.841,470.35v4.138c0,1.035,8.629,1.875,19.274,1.875s19.274-.84,19.274-1.875V470.35Z"/><path class="i" d="M648.389,470.569c0,1.035-8.63,1.874-19.274,1.874s-19.274-.839-19.274-1.874,8.629-1.874,19.274-1.874S648.389,469.534,648.389,470.569Z"/><ellipse class="j" cx="19.274" cy="1.874" rx="19.274" ry="1.874" transform="translate(609.841 468.475)"/><path class="i" d="M646.539,470.294c0,.784-7.8,1.419-17.424,1.419s-17.424-.635-17.424-1.419,7.8-1.42,17.424-1.42S646.539,469.51,646.539,470.294Z"/><path class="g" d="M642.838,465.627v4.139c0,.879-6.233,1.617-14.64,1.819-1.484.036-3.036.055-4.633.055-10.644,0-19.274-.839-19.274-1.874v-4.139Z"/><path class="h" d="M604.291,465.627v4.138c0,1.036,8.629,1.875,19.274,1.875s19.273-.839,19.273-1.875v-4.138Z"/><ellipse class="k" cx="19.274" cy="1.874" rx="19.274" ry="1.874" transform="translate(604.291 463.972)"/><path class="i" d="M642.838,465.627c0,1.035-8.629,1.875-19.273,1.875s-19.274-.84-19.274-1.875,8.629-1.874,19.274-1.874S642.838,464.592,642.838,465.627Z"/><path class="j" d="M640.988,465.571c0,.784-7.8,1.419-17.423,1.419s-17.424-.635-17.424-1.419,7.8-1.419,17.424-1.419S640.988,464.787,640.988,465.571Z"/><circle class="l" cx="20.101" cy="20.101" r="20.101" transform="translate(581.556 513.1) rotate(-89.045)"/><circle class="h" cx="20.101" cy="20.101" r="20.101" transform="matrix(0.014, -1, 1, 0.014, 580.953, 513.156)"/><circle class="i" cx="20.101" cy="20.101" r="20.101" transform="matrix(0.493, -0.87, 0.87, 0.493, 572.062, 501.469)"/><path class="m" d="M599.457,474.824a19.057,19.057,0,1,0,19.056,19.057A19.056,19.056,0,0,0,599.457,474.824Zm0,37.422a18.365,18.365,0,1,1,18.366-18.365A18.365,18.365,0,0,1,599.457,512.246Z"/><circle class="h" cx="13.72" cy="13.72" r="13.72" transform="translate(585.213 507.055) rotate(-87.766)"/><circle class="m" cx="12.904" cy="12.904" r="12.904" transform="translate(583.883 485.27) rotate(-16.845)"/><path class="h" d="M598.378,500.611a12.31,12.31,0,0,1-4.324-1.212l.155-3.438a14.9,14.9,0,0,0,2.563,1.138,9.047,9.047,0,0,0,2.457.521,2.935,2.935,0,0,0,1.3-.155.737.737,0,0,0,.441-.69.717.717,0,0,0-.269-.593,4.536,4.536,0,0,0-.959-.583q-.675-.332-1.826-.809a8.421,8.421,0,0,1-2.073-1.188,3.8,3.8,0,0,1-1.114-1.41,4.238,4.238,0,0,1-.284-1.886,3.375,3.375,0,0,1,1.218-2.622,5.833,5.833,0,0,1,3.347-1.042l.1-2.3,2.143.1-.1,2.277a12.174,12.174,0,0,1,4.107,1.2l-1.365,2.9a9.688,9.688,0,0,0-3.86-1.15,2.422,2.422,0,0,0-1.174.15.652.652,0,0,0-.364.58.734.734,0,0,0,.218.575,3.388,3.388,0,0,0,.822.535q.588.3,1.638.713A8.063,8.063,0,0,1,604.2,494.1a3.486,3.486,0,0,1,.828,2.563,3.8,3.8,0,0,1-1.23,2.778,5.38,5.38,0,0,1-3.276,1.2l-.125,2.771-2.144-.1Z"/><path class="n" d="M610.627,497.841c-2.325,2.928-1.383,7.548,2.106,10.319h0c3.489,2.771,8.2,2.644,10.528-.284l15.4-19.389c2.016-1.525-11.681-11.478-12.634-10.035Z"/><path class="c" d="M607.618,494.982l.048-.06a1.455,1.455,0,0,1,2.02-.358l17.53,13.924a1.456,1.456,0,0,1,.108,2.049l-3.2,4.031-.012.012-22.967,28.915c-5.837,7.349-14.971,9.81-20.4,5.5s-5.1-13.767.736-21.116l26.132-32.9Z"/><path class="e" d="M620.927,427.637a44.225,44.225,0,1,0,62.136-7.124A44.223,44.223,0,0,0,620.927,427.637ZM624.6,444.91a32.6,32.6,0,1,1,10.685,35.762A32.486,32.486,0,0,1,624.6,444.91Z"/><circle class="f" cx="32.606" cy="32.606" r="32.606" transform="translate(609.445 455.144) rotate(-45)"/><path class="o" d="M630.178,434.683a31.18,31.18,0,0,0-5.454,9.852l.174.01c38.366-11.494,62.486,5.795,63.145,6.273a32.6,32.6,0,0,0-57.865-16.135Z"/><path class="p" d="M636.2,438.357l-.528,1.9-.333,2.017-.114,2.087.052,2.147.212,2.112.333,2.106.464,2,.528,1.934.767,1.571.808,1.582.846,1.54.887,1.551.978,1.479,1.032,1.477,1.123,1.4,1.2,1.36.119.21.106.225.1.211.106.225.118.21.106.238.092.225.093.239-.216,0-.229.011-.216,0-.243.012-.218-.03-.231-.016-.232-.043-.233-.056-.4.29-.292.379-.194.456-.151.494-.1.5-.082.531-.111.492-.166.481.007.135-.033.164-.02.15-.046.164-.007.135-.006.149.034.134.061.146,2.62.236,2.572.36,2.549.442,2.487.553,2.478.635,2.431.786,2.37.911,2.334,1.021.873.444.847.458.848.485.838.54.824.541.8.623.775.651.739.734,1.009-.09,0-.622-.095-.55-.175-.532-.242-.515-.268-.5-.308-.485-.306-.458-.333-.457-.5-.637-.53-.609-.572-.634-.57-.594-.6-.606-.608-.551-.634-.523-.685-.466.03-.488.03-.488.029-.515.044-.489.071-.49.084-.491.153-.454.155-.427.942.183.985.235,1,.208.98.141,1,0,.953-.128.914-.369.836-.6.14-.183.14-.183.14-.169.113-.168.113-.181.086-.18.085-.193.031-.191-.108-.549-.188-.531-.229-.529-.254-.5-.147-.52-.039-.512.138-.493.354-.491.209-.145.223-.146.236-.147.209-.145.194-.185.139-.2.055-.246-.04-.268-.129-.156-.156-.154-.129-.156-.129-.142-.129-.156-.155-.128-.154-.114-.181-.1.248-.174.263-.148.3-.164.275-.176.233-.2.165-.224.054-.286-.07-.321-.108-.265-.16-.222-.186-.207-.2-.206-.147-.236-.092-.225-.013-.27.081-.274.426-.129.415-.074.429-.075.415-.075.413-.115.371-.153.326-.232.282-.311-.027-.539-.459-.815-.459-.815-.472-.8-.538-.771-.539-.8-.59-.728-.645-.752-.7-.682.109-.249.14-.183.182-.144.183-.131.2-.145.181-.158.153-.2.084-.22.045-.178-.022-.175-.048-.146-.088-.144-.075-.158-.1-.144-.063-.173-.048-.16.01-.622,0-.608.023-.636.038-.61.05-.624.05-.624.091-.613.093-.586.4-.331.347-.355.29-.42.209-.416.18-.455.1-.464.056-.5,0-.487-.322-1.322-.6-1.2-.824-1.081-.995-.992-1.059-.921-1.15-.849-1.134-.8-1.091-.757-1.41-.633-1.447-.564-1.446-.537-1.5-.494-1.494-.427-1.531-.357-1.554-.261-1.6-.151-.165-.059-.191-.031-.177-.018-.19-.018-.177-.018-.176,0-.177-.018-.189,0-1.9.107-1.851.294-1.775.452-1.752.654-1.638.77-1.6.944-1.515,1.075-1.454,1.207-.551.622-.536.635-.508.66-.466.685-.4.7-.383.722-.288.744-.233.768Z"/><path class="q" d="M647.851,432.107l-1.139.191-1.145.354-1.1.5-1.051.619-.964.737-.891.855-.791.958-.664,1.073-.54,1.121-.481,1.213-.4,1.25-.288,1.3-.112,1.29.077,1.294.306,1.269.549,1.271.524,1.028.684.994.8.907.919.833,1.021.693,1.069.569,1.115.418,1.12.242,1.759.319,1.8.223,1.842.072,1.836-.05,1.83-.171,1.8-.3,1.737-.41,1.651-.5,1.289-.442,1.256-.575,1.209-.708,1.122-.826,1.021-.956.853-1.069.7-1.183.477-1.294.338-1.1.188-1.118.064-1.179-.084-1.158-.219-1.152-.391-1.089-.549-.987-.732-.87-.617-.727-.7-.56-.766-.462-.817-.392-.828-.351-.867-.309-.84-.324-.829-.365-1.005-.383-1-.3-1.025-.233-1.037-.192-1.021-.153-1.059-.1-1.073-.1-1.112-.067-.578.069-.62.044-.607.016-.634.031-.593.029-.6.07-.6.111-.572.19Z"/><path class="c" d="M655.659,439.967l-.938.046a4.871,4.871,0,0,0-.687-1.479v-.029l.63-.708a.385.385,0,0,0-.026-.54l-1.211-1.1a.379.379,0,0,0-.534.024l-.668.7a4.7,4.7,0,0,0-1.532-.526v0l-.046-.938c-.011-.208-.109-.286-.317-.275l-1.632.08c-.208.01-.321.1-.31.306l.046.938a4.726,4.726,0,0,0-1.456.686l-.016,0-.7-.631a.382.382,0,0,0-.537.027l-1.1,1.21a.377.377,0,0,0,.025.534l.7.677a4.694,4.694,0,0,0-.525,1.54h-.005l-.938.046c-.208.01-.334.094-.324.3l.08,1.631a.318.318,0,0,0,.355.326l.938-.047a4.669,4.669,0,0,0,.686,1.448l0,.012-.63.7a.383.383,0,0,0,.026.537l1.21,1.1a.378.378,0,0,0,.534-.025l.653-.7a4.59,4.59,0,0,0,1.517.526v.005l.046.938a.324.324,0,0,0,.351.338l1.632-.08c.208-.01.286-.161.276-.37l-.046-.938a4.822,4.822,0,0,0,1.471-.686l.024,0,.707.63a.384.384,0,0,0,.539-.027l1.1-1.21a.378.378,0,0,0-.025-.534l-.7-.644a4.528,4.528,0,0,0,.527-1.508h0l.938-.046c.208-.01.3-.157.29-.365l-.081-1.632C655.969,440.021,655.867,439.957,655.659,439.967Zm-6.676,3.593-.069-.028c-.07-.03-.138-.063-.205-.1-.033-.018-.066-.036-.1-.056s-.064-.04-.1-.061l-.047-.032a2.425,2.425,0,0,1-.474-.446c-.027-.034-.054-.069-.079-.1a2.31,2.31,0,0,1-.2-.339,2.351,2.351,0,0,1,.449-2.691c.04-.04.082-.079.124-.116l.043-.037c.029-.024.059-.047.089-.07a2.457,2.457,0,0,1,.287-.184c.033-.018.067-.035.1-.052a2.362,2.362,0,0,1,1.987-.025c.034.016.069.032.1.049.051.026.1.054.149.083.032.02.064.04.095.061l.047.032c.03.022.061.045.09.068.045.035.088.071.13.109.027.025.055.051.081.078a2.205,2.205,0,0,1,.188.211c.023.029.046.059.068.09s.043.062.064.094q.045.072.087.147a2.368,2.368,0,0,1,.236,1.6c-.008.038-.016.075-.026.113-.014.056-.031.111-.049.165-.013.037-.026.072-.04.108s-.019.047-.029.07c-.02.047-.041.093-.064.138s-.036.067-.054.1-.031.052-.047.077-.028.045-.043.067l-.032.047c-.022.031-.045.061-.068.09l-.035.044c-.024.029-.049.058-.074.086l-.038.041a2.183,2.183,0,0,1-.164.156l-.043.037c-.029.024-.058.047-.089.07l-.092.066-.047.031c-.032.02-.064.04-.1.059a2.351,2.351,0,0,1-1.942.183Z"/></g></svg>