<svg xmlns="http://www.w3.org/2000/svg" width="200" height="200" viewBox="0 0 200 200"><defs><style>.a{fill:#e5eff7;stroke:#fff;stroke-miterlimit:10;stroke-width:2px;}.b{fill:#232b30;}.c{fill:#f4c9a2;}.d{fill:#d9b498;}.e{fill:#4e2a0e;}.f{fill:#fff;}.g{fill:#62b1b6;}.h{fill:#e66d43;}.i{fill:#cd592f;}.j,.k{fill:#e50019;}.j{fill-rule:evenodd;}.l{fill:#62b0b8;}.m{fill:#485163;}.n{fill:#4c8a92;}.o{fill:#d4dee2;}.p{fill:#384049;}.q{stroke:none;}.r{fill:none;}</style></defs><g transform="translate(-514.992 -366.213)"><g class="a" transform="translate(514.992 366.213)"><circle class="q" cx="100" cy="100" r="100"/><circle class="r" cx="100" cy="100" r="99"/></g><rect class="b" width="32.884" height="12.265" transform="translate(601.066 439.746)"/><ellipse class="c" cx="17.686" cy="21.261" rx="17.686" ry="21.261" transform="translate(599.598 402.554)"/><path class="d" d="M599.578,423.759c0,11.741,7.919,21.262,17.687,21.262V402.5C607.5,402.5,599.578,412.018,599.578,423.759Z"/><path class="e" d="M641.007,456.486s-3.64-8.768-3.966-14.415c0,0,.522-18.947.608-23.607,0,0-.053-7.085-4.318-12.193,0,0-2.558-3.584-6.45-3.419a10.391,10.391,0,0,0-7.143-4.326,28.1,28.1,0,0,0-4.544,0,18.815,18.815,0,0,0-7.719,2.443,22.613,22.613,0,0,0-6.14,5.111c-4.264,5.108-4.052,12.384-4.052,12.384.086,4.66.607,23.607.607,23.607-.325,5.647-3.966,14.415-3.966,14.415l-2.985,17.837c4.1,3.5,14.979.288,14.979.288,4.251-1.152,5.351-2.366,5.351-2.366-2.239-6.962.2-19.641.2-19.641-.72-7.923-4.807-11.794-4.807-11.794-2.867-2.763-3.706-12.113-3.706-12.113-.746-9,2.336-12.478,2.336-12.478a36.854,36.854,0,0,0,12.179,1.485,37.73,37.73,0,0,0,12.31-1.524s2.95,3.519,2.205,12.517c0,0-.673,8.851-3.54,11.614,0,0,.865-1.161.144,6.762,0,0-2.684,18.21-4.923,25.172,0,0,1.182,1.142,5.351,2.366,0,0,10.875,3.213,14.979-.288Z"/><path class="c" d="M629.031,451.03l-2.892,15.557H608.61l-2.892-15.559a50.768,50.768,0,0,1,5.169-.569l.671-6.522a15.815,15.815,0,0,0,5.793,1.084,16.722,16.722,0,0,0,5.768-1.13l.864,6.584A49.559,49.559,0,0,1,629.031,451.03Z"/><rect class="f" width="30.336" height="49.948" transform="translate(602.458 464.157)"/><path class="g" d="M596.861,420.327s-3.635,3.97-.639,10.413c0,0,4.052,8.147,18.1,8.606v-1.377s-20.791-.37-17.328-15.209Z"/><path class="g" d="M614.357,440.4h6.675a1.842,1.842,0,0,0,1.837-1.837h0a1.841,1.841,0,0,0-1.837-1.836h-6.675a1.842,1.842,0,0,0-1.837,1.836h0A1.842,1.842,0,0,0,614.357,440.4Z"/><path class="h" d="M652.192,479.918s-.707,12.176-2.218,16.886a26.742,26.742,0,0,1-17.621,18.083,36.956,36.956,0,0,1-11.653,1.736l-3.37.005-3.356-.005a35.446,35.446,0,0,1-11.95-1.744A26.962,26.962,0,0,1,584.713,496.8c-1.511-4.71-2.222-16.886-2.222-16.886a45.863,45.863,0,0,1,.071-9c1.145-9.982,5.736-13.221,5.736-13.221a31.311,31.311,0,0,1,11.259-5.352c.016,0,.03-.009.046-.012a.09.09,0,0,1,.021-.008l.089-.024a59.3,59.3,0,0,1,5.948-1.417c.016,0,.032-.158.048-.158h0l.006.169,2.892,15.728h0l8.164,43.9.608,2.994.6-3.023,8.158-43.91,2.892-15.558h.006a54.109,54.109,0,0,1,6.089,1.3.037.037,0,0,1,.02.005,31.285,31.285,0,0,1,11.232,5.357s4.268,3.057,5.535,13.276A52.738,52.738,0,0,1,652.192,479.918Z"/><path class="i" d="M617.378,513.513l-1.552-2.993-16.538-32.912,8.621-7.288-5.51-2.755-.2-.978-2.64-14.24,0-.012v0l.044-.005.114-.025,5.947-1.266.068-.007.048,0v0l2.862,15.557,8.148,43.922Z"/><path class="i" d="M635.461,477.607l-16.52,32.877-1.562,3.029.6-3.018,8.159-43.908,2.892-15.557.005,0,6.068,1.3v.005l-2.6,14.245-.169.978-5.505,2.755Z"/><path class="i" d="M602.458,514.668l-.434.211A26.962,26.962,0,0,1,584.713,496.8c-1.511-4.71-2.222-16.886-2.222-16.886a45.863,45.863,0,0,1,.071-9S594.253,486.05,602.458,514.668Z"/><path class="i" d="M652.192,479.918s-.707,12.176-2.218,16.886a26.742,26.742,0,0,1-17.621,18.083l-.448-.219c8.2-28.618,19.9-43.748,19.9-43.748s.039.018.112.055A52.738,52.738,0,0,1,652.192,479.918Z"/><path class="j" d="M543.707,430.167l.225.163a.451.451,0,0,1,.11.112l.3.427a.415.415,0,0,1,.045.079l.346.772a.466.466,0,0,1,.02.053l.372,1.194.314,1.158a.329.329,0,0,1,.011.052l.12.782a.476.476,0,0,1,0,.151l-.065.378a.469.469,0,0,1-.091.208h0a.476.476,0,0,1-.257.171l-.575.148-.032.007-.777.146a.473.473,0,0,0-.307.2l-.254.381a.467.467,0,0,0-.073.184l-.16.951a.453.453,0,0,0,0,.142l.206,1.506.006.036.44,2.038a.46.46,0,0,0,.015.054l.643,1.877a.477.477,0,0,0,.026.061l.64,1.257a.479.479,0,0,0,.091.123l.505.495a.472.472,0,0,0,.273.132l.442.055a.465.465,0,0,0,.236-.031l.757-.306a.512.512,0,0,1,.076-.023l.075-.017a.474.474,0,0,1,.4.1l.159.13a.461.461,0,0,1,.08.085l.412.558a.547.547,0,0,1,.054.094l.451,1.051.011.03.392,1.118a.453.453,0,0,1,.015.052l.193.849a.482.482,0,0,1,.01.076l.027.425a.478.478,0,0,1-.074.285l-.072.113a.47.47,0,0,1-.29.206l-1.008.239a.551.551,0,0,1-.107.013l-1.4.029a3.49,3.49,0,0,1-.661-.076l-.386-.126a1.169,1.169,0,0,1-.3-.133,2.479,2.479,0,0,1-.394-.287l-.027-.026-.628-.64c-.027-.026-.176-.209-.2-.241l-1.086-1.683a.5.5,0,0,1-.032-.06l-1.083-2.443c-.006-.014-.012-.028-.017-.043l-.9-2.684a.352.352,0,0,1-.012-.046l-.554-2.462-.007-.037-.307-2.171a.481.481,0,0,1,0-.076l.039-1.948a.5.5,0,0,1,.007-.068l.271-1.619a.353.353,0,0,1,.009-.044l.341-1.274a.468.468,0,0,1,.035-.092l.448-.883a.5.5,0,0,1,.078-.11l.451-.48a.476.476,0,0,1,.118-.091l.95-.52a.5.5,0,0,1,.131-.048l.756-.157Z"/><path class="j" d="M545.156,429.6l.269.117a.229.229,0,0,1,.075.052l.306.314a.235.235,0,0,1,.052.08l.226.588.322.817.315.8a.316.316,0,0,1,.012.041l.158.8.155.89.095.756a.23.23,0,0,1,0,.074l-.092.475a.235.235,0,0,1-.123.164l-.325.169a.236.236,0,0,1-.111.027l-.31,0a.237.237,0,0,1-.211-.134h0a.248.248,0,0,1-.023-.11l.011-.3a.2.2,0,0,0,0-.034l-.057-.528-.092-.63,0-.022-.16-.662-.161-.666,0-.012-.177-.59-.008-.021-.213-.521-.007-.017-.234-.466-.01-.022-.154-.4a.251.251,0,0,0-.041-.069l-.25-.292a.238.238,0,0,1-.04-.067l-.038-.1a.239.239,0,0,1,.044-.244l.01-.01a.225.225,0,0,1,.088-.062l.291-.115a.272.272,0,0,1,.056-.015l.363-.048Z"/><path class="j" d="M551.27,449.662l.094-.381a.261.261,0,0,0,.006-.039l.029-.388a.235.235,0,0,0,0-.065l-.11-.534-.006-.025-.19-.59-.252-.783a.138.138,0,0,0-.012-.028l-.342-.722-.009-.017-.454-.785a.2.2,0,0,0-.03-.041l-.517-.566a.235.235,0,0,0-.058-.046l-.431-.245a.239.239,0,0,0-.183-.021l-.363.107a.22.22,0,0,0-.088.049l-.192.167a.235.235,0,0,0-.064.264l.034.085a.213.213,0,0,0,.028.051l.213.3.337.436.016.023.283.47a.251.251,0,0,1,.018.037l.207.537.22.54.209.526.007.019.178.6.006.025.086.468.086.463a.236.236,0,0,1,0,.065l-.035.37a.283.283,0,0,0,0,.065l0,.006a.234.234,0,0,0,.242.193l.208-.009a.244.244,0,0,0,.1-.025l.4-.2a.256.256,0,0,0,.071-.055l.26-.3Z"/><path class="k" d="M584.355,435.191a21.122,21.122,0,0,0-39.452-8.312l.375.534a.7.7,0,0,1,.058.1l.247.551a19.943,19.943,0,1,1,5.785,25.118l-1.069.253a.6.6,0,0,1-.14.017l-.312.006a21.1,21.1,0,0,0,19.5,3.985,21.188,21.188,0,0,0,10.081-6.571,21.19,21.19,0,0,0,4.926-15.684Z"/><path class="k" d="M551.645,444.369v-2.345l2.14-1.936c3.619-3.237,5.377-5.1,5.428-7.033,0-1.351-.815-2.421-2.726-2.421a6,6,0,0,0-3.543,1.376l-1.095-2.778a9.166,9.166,0,0,1,5.427-1.707c3.746,0,5.811,2.191,5.811,5.2,0,2.778-2.014,4.995-4.409,7.135l-1.529,1.275v.051h6.243v3.185Z"/><path class="k" d="M572.642,444.369v-3.95H565.3V437.9l6.269-10.091h4.74v9.709H578.3v2.9h-1.987v3.95Zm0-6.855v-3.669c0-.994.051-2.014.128-3.084h-.1c-.535,1.07-.968,2.039-1.529,3.084l-2.217,3.618v.051Z"/><path class="k" d="M563.378,418.414l6.013-1.2-5.959-1.438-5.681-2.39-.121.057,1.779,3.082.285.493-.306.481-1.9,2.988.118.082Z"/><path class="k" d="M571.5,454.248l-4.562,3.4,5.568-1.172,5.715-.262.078-.1-2.72-1.873-.436-.3.065-.525.4-3.262-.132-.022Z"/><path class="l" d="M655.91,475.957a1.27,1.27,0,0,0-.6.257c-2.358,1.53-4.688,3.127-7.133,4.491a56.162,56.162,0,0,1-15.565,6.021c-.389.084-.665.194-.68.749A57.14,57.14,0,0,0,633,500.832a48.022,48.022,0,0,0,1.544,5.674h21.173Z"/><path class="l" d="M655.538,533.968a54.579,54.579,0,0,0,17.3-18.714,47.616,47.616,0,0,0,3.911-8.748H655.714Z"/><path class="m" d="M679.406,487.409a.786.786,0,0,0-.739-.88,60.159,60.159,0,0,1-22.148-10.313.957.957,0,0,0-.609-.234l-.2,30.573h21.035A53.406,53.406,0,0,0,679.406,487.409Z"/><path class="m" d="M634.541,506.555a52.527,52.527,0,0,0,9.624,17.11,53.312,53.312,0,0,0,11.373,10.327l.176-27.437Z"/><path class="l" d="M673.719,402.842H655.965a16.435,16.435,0,0,0-16.339,16.191v1.078a16.3,16.3,0,0,0,16.339,16.037h5.746l-3.6,9.534,13.731-9.534h1.881a16.094,16.094,0,0,0,16.1-16.037v-1.078A16.226,16.226,0,0,0,673.719,402.842Z"/><path class="n" d="M639.734,420.42a16.306,16.306,0,0,0,16.23,15.728h5.747l-3.6,9.535,13.731-9.535h1.882a16.271,16.271,0,0,0,16.192-15.728Z"/><circle class="o" cx="3.169" cy="3.169" r="3.169" transform="translate(673.544 417.218)"/><circle class="o" cx="3.169" cy="3.169" r="3.169" transform="translate(661.654 417.218)"/><circle class="o" cx="3.169" cy="3.169" r="3.169" transform="translate(649.765 417.218)"/><path class="p" d="M586.205,506.2h-2.5a18.926,18.926,0,0,0-1.634-3.787l.008.044,1.769-1.742a.992.992,0,0,0,0-1.411l-3.076-3.069a1.006,1.006,0,0,0-1.424,0l-1.778,1.77a13.365,13.365,0,0,0-3.917-1.6V493.9a.983.983,0,0,0-.988-1h-4.35a1.122,1.122,0,0,0-1.14,1v2.5a19.184,19.184,0,0,0-3.826,1.634l.025-.008-1.751-1.769a1,1,0,0,0-1.416,0l-3.071,3.076a1.007,1.007,0,0,0,0,1.424l1.769,1.651a17.869,17.869,0,0,0-1.6,3.791H554.8c-.555,0-.921.685-.921,1.241v4.35a.842.842,0,0,0,.921.887h2.5a14.112,14.112,0,0,0,1.634,3.952l-.008.038-1.769,1.784a1.016,1.016,0,0,0,0,1.431l3.076,3.079a1.007,1.007,0,0,0,1.424,0l1.69-1.767a18.1,18.1,0,0,0,3.829,1.6v2.513a1.155,1.155,0,0,0,1.164,1.008h4.35a.973.973,0,0,0,.964-1.008v-2.5a13.879,13.879,0,0,0,3.914-1.634l.018.008,1.774,1.768a1.009,1.009,0,0,0,1.427,0l3.077-3.075a1.007,1.007,0,0,0,0-1.424l-1.768-1.816a13.6,13.6,0,0,0,1.6-3.956h2.513a1,1,0,0,0,1.085-.911v-4.35A1.276,1.276,0,0,0,586.205,506.2Zm-18.227,9.161c-.061-.026-.121-.054-.181-.083a5.935,5.935,0,0,1-.532-.289c-.086-.052-.171-.106-.254-.163s-.165-.114-.246-.174l-.119-.092a6.36,6.36,0,0,1-.645-.582,6.48,6.48,0,0,1-.558-.666c-.068-.094-.134-.19-.2-.288a6.243,6.243,0,0,1-1-3.391A6.251,6.251,0,0,1,566.3,505q.166-.152.345-.291l.119-.092c.081-.06.162-.118.246-.174a6.23,6.23,0,0,1,.786-.452c.091-.044.184-.086.278-.126a6.281,6.281,0,0,1,5.289.193c.09.046.179.1.266.145q.2.112.385.24c.083.056.165.114.245.174l.12.092c.079.062.156.126.232.191.113.1.223.2.33.308.071.07.14.143.207.217a6.333,6.333,0,0,1,.472.586c.058.082.114.165.168.25s.107.17.157.258q.114.2.213.4a6.3,6.3,0,0,1,.42,4.281q-.039.15-.084.3-.069.221-.153.434c-.038.1-.077.189-.119.281q-.042.093-.087.183c-.059.121-.123.241-.19.357-.05.088-.1.174-.157.259-.043.067-.087.133-.133.2s-.082.116-.124.172l-.092.12c-.062.079-.126.156-.191.232-.033.037-.066.075-.1.112-.067.074-.136.147-.207.218l-.108.105c-.145.138-.3.269-.454.393l-.12.092c-.08.06-.162.118-.245.174s-.168.111-.254.163l-.131.077c-.087.051-.176.1-.266.145a6.28,6.28,0,0,1-5.189.234C568.109,515.419,568.043,515.391,567.978,515.362Z"/></g></svg>