<svg xmlns="http://www.w3.org/2000/svg" width="200" height="200" viewBox="0 0 200 200"><defs><style>.a{fill:#e5eff7;stroke:#fff;stroke-miterlimit:10;stroke-width:2px;}.b{fill:#dad800;}.c{fill:#040505;opacity:0.26;}.d{fill:#e86e43;}.e{fill:#d7b087;}.f{fill:#19212d;}.g{fill:#262626;}.h{fill:#00a1ed;opacity:0.8;}.i{fill:#b94336;}.j{fill:#232930;}.k{fill:#fff;}.k,.l{opacity:0.3;}.l{fill:#b4b4b4;}.m{stroke:none;}.n{fill:none;}</style></defs><g transform="translate(-514.992 -366.213)"><g class="a" transform="translate(514.992 366.213)"><circle class="m" cx="100" cy="100" r="100"/><circle class="n" cx="100" cy="100" r="99"/></g><rect class="b" width="66.49" height="92.518" transform="translate(528.347 435.333) rotate(-28.759)"/><rect class="c" width="59.035" height="1.116" transform="translate(540.306 447.379) rotate(-28.759)"/><rect class="c" width="59.035" height="1.116" transform="translate(543.098 452.467) rotate(-28.759)"/><rect class="c" width="59.035" height="1.116" transform="translate(545.891 457.555) rotate(-28.759)"/><rect class="c" width="59.035" height="1.116" transform="translate(548.683 462.643) rotate(-28.759)"/><rect class="c" width="59.035" height="1.116" transform="translate(551.475 467.731) rotate(-28.759)"/><rect class="c" width="59.035" height="1.116" transform="translate(554.268 472.819) rotate(-28.759)"/><rect class="c" width="59.035" height="1.116" transform="translate(557.06 477.906) rotate(-28.759)"/><rect class="c" width="59.035" height="1.116" transform="translate(559.852 482.994) rotate(-28.759)"/><rect class="c" width="59.035" height="1.116" transform="translate(562.644 488.082) rotate(-28.759)"/><rect class="c" width="59.035" height="1.116" transform="translate(565.437 493.17) rotate(-28.759)"/><rect class="c" width="59.035" height="1.116" transform="translate(568.229 498.258) rotate(-28.759)"/><rect class="c" width="59.035" height="1.116" transform="translate(571.021 503.346) rotate(-28.759)"/><path class="d" d="M566.99,452.83l44.017,17.753a.517.517,0,0,0,.679-.273L612.7,467.8a.518.518,0,0,0-.3-.668L568.38,449.382a.533.533,0,0,0-.115-.032l-1.381,3.423A.57.57,0,0,0,566.99,452.83Z"/><path class="e" d="M568.289,449.351a44.543,44.543,0,0,0-5.1-.063,43.673,43.673,0,0,0,3.719,3.494Z"/><path class="f" d="M564.962,449.223a10.386,10.386,0,0,0-1.809.046c-.035.132,1.263,1.291,1.263,1.291Z"/><path class="g" d="M613.362,467.513l-2.96-1.206-1.414,3.469,2.96,1.206a2,2,0,0,0,2.646-.944h0A2,2,0,0,0,613.362,467.513Z"/><rect class="h" width="7.216" height="16.995" transform="translate(628.692 466.664)"/><rect class="h" width="7.216" height="22.53" transform="translate(639.147 461.129)"/><rect class="h" width="7.216" height="22.53" transform="translate(670.51 461.129)"/><rect class="h" width="7.216" height="44.117" transform="translate(649.601 439.541)"/><rect class="h" width="7.216" height="35.139" transform="translate(660.055 448.52)"/><rect class="h" width="7.216" height="50.382" transform="translate(680.964 433.276)"/><path class="i" d="M607.847,502.783c-1.608,2.091-.893,5.34,1.6,7.257h0c2.491,1.917,5.815,1.775,7.424-.316l10.654-13.846c1.405-1.1-8.367-7.97-9.023-6.942Z"/><path class="j" d="M614.349,453.142a31.2,31.2,0,1,0,43.758-5.7A31.2,31.2,0,0,0,614.349,453.142Zm2.776,12.146a23.005,23.005,0,1,1,7.928,25.113A22.945,22.945,0,0,1,617.125,465.288Z"/><circle class="k" cx="23.006" cy="23.006" r="23.006" transform="translate(616.073 449.165)"/><path class="l" d="M620.952,458.012a21.6,21.6,0,0,0-3.62,7.013l0,0c26.942-8.527,44.147,3.407,44.616,3.738a23,23,0,0,0-41-10.753Z"/><path class="j" d="M605.693,500.8l.033-.043a1.027,1.027,0,0,1,1.421-.275l12.52,9.632a1.027,1.027,0,0,1,.1,1.444l-2.214,2.879-.009.009-15.888,20.65c-4.038,5.248-10.455,7.084-14.333,4.1s-3.749-9.657.289-14.906l18.077-23.495Z"/></g></svg>