<svg xmlns="http://www.w3.org/2000/svg" width="200" height="200" viewBox="0 0 200 200"><defs><style>.a{fill:#e5eff7;stroke:#fff;stroke-width:2px;}.a,.ad,.ah,.ak,.ao,.ar,.av,.h,.i,.n,.s,.t,.w{stroke-miterlimit:10;}.b,.v,.w{fill:#5ab26b;}.b{opacity:0.5;}.aa,.ad,.ah,.aj,.ak,.ao,.ar,.av,.ba,.c,.d,.h,.i,.n,.s,.t{fill:none;}.c,.d,.i{stroke:#00a1ed;}.aa,.aj,.c,.d{stroke-linecap:round;stroke-linejoin:round;}.aa,.ad,.c,.h,.i,.s,.w{stroke-width:0.662px;}.d{stroke-width:0.637px;stroke-dasharray:1.594 2.231;}.e{fill:#009cdc;}.an,.ax,.ay,.f{fill:#fff;}.g{fill:#fe9d2b;}.h{stroke:#c3d2d6;}.j{fill:#c3d2d6;}.k{fill:#00973d;}.l{fill:#00a1ed;}.m{fill:#ffe92f;}.ak,.n{stroke:#ffae04;}.n{stroke-width:1.85px;}.al,.o{fill:#ffae04;}.o{font-size:18.642px;}.al,.an,.as,.au,.aw,.ay,.o{font-family:Roboto-Bold, Roboto;font-weight:700;}.al,.as,.aw,.o{letter-spacing:0.05em;}.p{fill:#1a1818;}.q{fill:#009889;}.r{fill:#4ab9b3;}.s,.t{stroke:#4ab9b3;}.t{stroke-width:0.468px;}.u{fill:#20363e;}.w{stroke:#36a64f;}.x{fill:#36a64f;}.y{fill:#e0e1e3;}.z{fill:#2a4953;}.aa{stroke:#59808d;stroke-dasharray:0.993 1.324;}.ab{fill:#59808d;}.ac{fill:#364953;}.ad,.aj{stroke:#e7ebee;}.ae{fill:#7c929d;}.af{fill:#eb3c1f;}.ag{fill:#fc0;}.ah{stroke:#b5dbba;stroke-width:1.986px;}.ai{fill:#00a59a;}.aj,.ar,.av{stroke-width:1.324px;}.ak{stroke-width:1.082px;}.al{font-size:10.901px;}.am{fill:#ed4a21;}.an{font-size:2.799px;}.an,.au,.ay{letter-spacing:0.1em;}.ao{stroke:#ed4a21;stroke-width:0.331px;}.ap{opacity:0.29;mix-blend-mode:multiply;isolation:isolate;}.aq,.as,.at,.au{fill:#2d8462;}.ar{stroke:#2d8462;}.as,.aw{font-size:42.453px;}.at,.ax{font-size:13.699px;font-family:SegoeUI, Segoe UI;}.au,.ay{font-size:8.459px;}.av{stroke:#88c591;}.aw{fill:#88c591;}.az{stroke:none;}</style></defs><g transform="translate(-514.992 -366.213)"><g class="a" transform="translate(514.992 366.213)"><circle class="az" cx="100" cy="100" r="100"/><circle class="ba" cx="100" cy="100" r="99"/></g><circle class="b" cx="45.486" cy="45.486" r="45.486" transform="translate(569.635 419.563)"/><circle class="c" cx="53.784" cy="53.784" r="53.784" transform="translate(561.337 411.265)"/><circle class="d" cx="58.082" cy="58.082" r="58.082" transform="translate(557.04 406.967)"/><rect class="e" width="34.305" height="21.285" rx="1.68" transform="translate(570.54 507.99)"/><rect class="f" width="34.305" height="5.232" transform="translate(570.54 520.973)"/><rect class="g" width="54.383" height="22.998" rx="1.319" transform="translate(625.114 419.793)"/><line class="h" y2="16.834" transform="translate(663.54 422.834)"/><line class="i" x2="11.308" transform="translate(665.601 432.296)"/><circle class="f" cx="2.827" cy="2.827" r="2.827" transform="translate(668.428 423.426)"/><line class="i" x2="11.308" transform="translate(665.601 434.185)"/><rect class="j" width="11.308" height="2.897" transform="translate(665.601 436.395)"/><line class="i" x2="34.057" transform="translate(627.574 428.707)"/><line class="i" x2="34.057" transform="translate(627.574 430.532)"/><line class="i" x2="34.057" transform="translate(627.574 432.357)"/><line class="i" x2="13.925" transform="translate(627.574 434.182)"/><path class="k" d="M650.96,439.883v-.493a1.424,1.424,0,0,1-.747-.215l.117-.328a1.3,1.3,0,0,0,.7.211c.347,0,.581-.2.581-.479s-.19-.435-.552-.581c-.5-.195-.8-.42-.8-.845a.8.8,0,0,1,.737-.786v-.493h.3v.473a1.307,1.307,0,0,1,.635.171l-.122.323a1.178,1.178,0,0,0-.616-.167c-.376,0-.517.225-.517.42,0,.254.18.381.6.557.5.2.757.459.757.894a.849.849,0,0,1-.771.83v.508Z"/><path class="k" d="M654.587,436.689h-.01l-.552.3-.083-.327.694-.371H655v3.174h-.415Z"/><path class="k" d="M658.053,436.65h-1.211l-.121.816a1.645,1.645,0,0,1,.258-.02,1.347,1.347,0,0,1,.684.171.9.9,0,0,1,.454.815,1.1,1.1,0,0,1-1.182,1.084,1.555,1.555,0,0,1-.791-.195l.108-.327a1.417,1.417,0,0,0,.678.176.7.7,0,0,0,.752-.689c-.005-.41-.278-.7-.913-.7a3.4,3.4,0,0,0-.439.034l.2-1.523h1.518Z"/><path class="k" d="M660.773,437.842c0,1.079-.4,1.674-1.1,1.674-.62,0-1.04-.581-1.05-1.631s.459-1.65,1.1-1.65C660.392,436.235,660.773,436.831,660.773,437.842Zm-1.724.049c0,.825.254,1.294.645,1.294.439,0,.649-.513.649-1.324,0-.781-.2-1.294-.645-1.294C659.323,436.567,659.049,437.026,659.049,437.891Z"/><path class="l" d="M629.292,423.006a4.116,4.116,0,0,1,.777-.069,1.36,1.36,0,0,1,.9.24.689.689,0,0,1,.273.581.781.781,0,0,1-.556.722v.01a.848.848,0,0,1,.678.825.889.889,0,0,1-.278.66,1.655,1.655,0,0,1-1.138.307,4.892,4.892,0,0,1-.659-.039Zm.425,1.347h.386c.449,0,.712-.234.712-.551,0-.386-.292-.538-.722-.538a1.78,1.78,0,0,0-.376.03Zm0,1.578a2.361,2.361,0,0,0,.356.019c.44,0,.845-.161.845-.639,0-.45-.386-.635-.849-.635h-.352Z"/><path class="l" d="M632.47,425.218l-.342,1.035h-.439l1.118-3.291h.513l1.123,3.291h-.454l-.352-1.035Zm1.079-.332-.322-.948c-.073-.214-.122-.41-.171-.6h-.01c-.048.195-.1.395-.166.6l-.322.953Z"/><path class="l" d="M634.926,426.253v-3.291h.464l1.054,1.665a9.146,9.146,0,0,1,.591,1.069l.01-.005c-.039-.439-.049-.84-.049-1.352v-1.377h.4v3.291h-.43l-1.045-1.67a10.285,10.285,0,0,1-.615-1.1l-.015.005c.024.415.034.811.034,1.358v1.406Z"/><path class="l" d="M638.138,422.962h.425v1.587h.014c.088-.127.176-.244.259-.352l1.006-1.235h.528l-1.192,1.4,1.284,1.895h-.5l-1.084-1.616-.312.361v1.255h-.425Z"/><path class="l" d="M641.819,426.253v-3.291h.464l1.054,1.665a9.339,9.339,0,0,1,.592,1.069l.009-.005c-.039-.439-.049-.84-.049-1.352v-1.377h.4v3.291h-.43l-1.045-1.67a10.285,10.285,0,0,1-.615-1.1l-.015.005c.024.415.034.811.034,1.358v1.406Z"/><path class="l" d="M645.563,425.218l-.341,1.035h-.44l1.118-3.291h.513l1.123,3.291h-.454l-.352-1.035Zm1.079-.332-.322-.948c-.073-.214-.122-.41-.171-.6h-.009c-.049.195-.1.395-.167.6l-.322.953Z"/><path class="l" d="M650.773,424.808c-.024-.459-.054-1.011-.049-1.421h-.015c-.112.385-.249.8-.415,1.25l-.581,1.6h-.322l-.532-1.567c-.157-.464-.288-.889-.381-1.279h-.01c-.01.41-.034.962-.064,1.455l-.087,1.411h-.406l.23-3.291h.542l.561,1.592c.137.405.25.766.333,1.108h.014c.083-.332.2-.693.347-1.108l.586-1.592h.542l.205,3.291h-.415Z"/><path class="l" d="M653.629,424.71h-1.28V425.9h1.426v.357h-1.851v-3.291H653.7v.356h-1.353v1.04h1.28Z"/><circle class="m" cx="14.823" cy="14.823" r="14.823" transform="translate(616.727 506.15)"/><circle class="n" cx="12.15" cy="12.15" r="12.15" transform="translate(619.4 508.823)"/><text class="o" transform="translate(631.327 527.723)"><tspan x="-5.348" y="0">$</tspan></text><rect class="p" width="26.295" height="45.045" rx="1.681" transform="translate(547.441 442.927)"/><path class="j" d="M558.534,445.143h4.109a.48.48,0,0,0,.479-.479h0a.48.48,0,0,0-.479-.48h-4.109a.479.479,0,0,0-.479.48h0A.479.479,0,0,0,558.534,445.143Z"/><path class="j" d="M555.666,485.058h9.844a.479.479,0,0,0,.479-.48h0a.479.479,0,0,0-.479-.479h-9.844a.48.48,0,0,0-.479.479h0A.48.48,0,0,0,555.666,485.058Z"/><rect class="f" width="21.348" height="35.147" transform="translate(549.914 446.471)"/><rect class="q" width="21.348" height="1.276" transform="translate(549.914 446.471)"/><rect class="l" width="12.485" height="4.259" rx="0.539" transform="translate(554.346 470.166)"/><path class="f" d="M558.1,471.092a3.723,3.723,0,0,1,.607-.047,1,1,0,0,1,.687.2.661.661,0,0,1,.214.513.719.719,0,0,1-.189.523,1.013,1.013,0,0,1-.748.269,1.1,1.1,0,0,1-.255-.022v.981H558.1Zm.316,1.181a1.077,1.077,0,0,0,.262.025c.382,0,.614-.185.614-.523,0-.323-.229-.48-.578-.48a1.293,1.293,0,0,0-.3.026Z"/><path class="f" d="M560.123,472.742l-.254.77h-.327l.832-2.449h.381l.836,2.449h-.338l-.262-.77Zm.8-.248-.24-.7c-.054-.16-.091-.306-.127-.447h-.007c-.037.145-.077.294-.124.443l-.24.708Z"/><path class="f" d="M562.209,473.512v-1.039l-.774-1.41h.36l.345.676c.095.185.167.334.244.5h.007c.069-.16.152-.32.247-.5l.352-.676h.36l-.821,1.406v1.043Z"/><rect class="r" width="17.582" height="1.875" transform="translate(551.797 451.039)"/><line class="s" x2="17.582" transform="translate(551.797 455.452)"/><line class="s" x2="17.582" transform="translate(551.797 457.327)"/><line class="s" x2="17.582" transform="translate(551.797 459.202)"/><line class="t" x2="8.791" transform="translate(551.797 461.078)"/><path class="u" d="M599.862,432.155H564.55V407.01h35.312A1.99,1.99,0,0,1,601.851,409v21.167A1.99,1.99,0,0,1,599.862,432.155Z"/><rect class="v" width="42.285" height="19.361" transform="translate(587.881 396.631)"/><rect class="w" width="39.187" height="16.418" transform="translate(589.43 398.102)"/><path class="x" d="M589.43,401.6v-3.5h3.5Z"/><path class="x" d="M592.931,414.26h-3.5v-3.5Z"/><path class="x" d="M628.612,401.6l-3.5-3.5h3.5Z"/><path class="x" d="M628.612,414.26h-3.5l3.5-3.5Z"/><circle class="y" cx="6.118" cy="6.118" r="6.118" transform="translate(602.905 400.193)"/><path class="v" d="M608.4,410.648v-.99a2.86,2.86,0,0,1-1.5-.432l.235-.657a2.624,2.624,0,0,0,1.413.422c.7,0,1.167-.4,1.167-.961,0-.54-.383-.873-1.109-1.167-1-.393-1.618-.844-1.618-1.7a1.609,1.609,0,0,1,1.481-1.579v-.99h.608v.951a2.626,2.626,0,0,1,1.275.343l-.245.648a2.367,2.367,0,0,0-1.236-.334c-.755,0-1.039.451-1.039.844,0,.509.363.764,1.216,1.117,1.01.412,1.52.922,1.52,1.8a1.7,1.7,0,0,1-1.55,1.667v1.02Z"/><rect class="x" width="33.334" height="21.805" transform="translate(566.65 408.68)"/><path class="z" d="M0,0H32.345a1.518,1.518,0,0,1,1.518,1.518V23.627a1.518,1.518,0,0,1-1.518,1.518H0a0,0,0,0,1,0,0V0A0,0,0,0,1,0,0Z" transform="translate(564.55 407.01)"/><rect class="u" width="4.2" height="25.145" transform="translate(564.55 407.01)"/><path class="aa" d="M565.214,408.314h29.955a1.782,1.782,0,0,1,1.782,1.783v18.971a1.782,1.782,0,0,1-1.782,1.783H565.214"/><rect class="u" width="15.175" height="6.09" rx="0.974" transform="translate(587.56 416.538)"/><path class="ab" d="M593.3,419.582a1.767,1.767,0,1,1-1.768-1.768A1.767,1.767,0,0,1,593.3,419.582Z"/><rect class="ac" width="50.381" height="26.701" rx="1.727" transform="translate(655.843 510.008) rotate(-90)"/><rect class="v" width="20.684" height="11.938" rx="1.221" transform="translate(658.851 465.96)"/><path class="f" d="M677.842,462.892h-17.3V452.322h17.3v10.569Z"/><line class="ad" x2="3.422" transform="translate(662.38 454.073)"/><line class="ad" x2="2.16" transform="translate(673.846 457.469)"/><line class="ad" x2="2.16" transform="translate(673.846 459.167)"/><line class="ad" x2="9.142" transform="translate(662.38 455.771)"/><line class="ad" x2="5.656" transform="translate(662.38 457.469)"/><line class="ad" x2="7.98" transform="translate(662.38 459.167)"/><rect class="ae" width="17.298" height="1.217" transform="translate(660.544 461.674)"/><rect class="ae" width="5.443" height="3.301" transform="translate(658.722 481.357)"/><rect class="ae" width="5.443" height="3.301" transform="translate(666.471 481.357)"/><rect class="ae" width="5.443" height="3.301" transform="translate(674.222 481.357)"/><rect class="ae" width="5.443" height="3.301" transform="translate(658.722 486.589)"/><rect class="ae" width="5.443" height="3.301" transform="translate(666.471 486.589)"/><rect class="ae" width="5.443" height="3.301" transform="translate(674.222 486.589)"/><rect class="ae" width="5.443" height="3.301" transform="translate(658.722 491.821)"/><rect class="ae" width="5.443" height="3.301" transform="translate(666.471 491.821)"/><rect class="ae" width="5.443" height="3.301" transform="translate(674.222 491.821)"/><rect class="af" width="5.443" height="3.301" transform="translate(658.722 497.053)"/><rect class="ag" width="5.443" height="3.301" transform="translate(666.471 497.053)"/><rect class="x" width="5.443" height="3.301" transform="translate(674.222 497.053)"/><path class="ah" d="M664.659,470.625l3.847,3.847,5.22-5.22"/><rect class="u" width="20.943" height="1.655" transform="translate(658.722 503.554)"/><path class="ai" d="M0,0H19.587a1.407,1.407,0,0,1,1.407,1.407V16.426a1.407,1.407,0,0,1-1.407,1.407H0a0,0,0,0,1,0,0V0A0,0,0,0,1,0,0Z" transform="translate(678.11 505.209) rotate(90)"/><rect class="ac" width="4.327" height="20.994" transform="translate(662.829 505.209)"/><line class="aj" y1="12.907" transform="translate(674.926 510.008)"/><line class="aj" y1="4.633" transform="translate(671.915 518.282)"/><line class="aj" y1="2.223" transform="translate(671.915 513.483)"/><circle class="m" cx="8.668" cy="8.668" r="8.668" transform="translate(569.823 424.08)"/><circle class="ak" cx="7.105" cy="7.105" r="7.105" transform="translate(571.386 425.643)"/><text class="al" transform="translate(578.361 436.696)"><tspan x="-3.127" y="0">$</tspan></text><rect class="am" width="34.305" height="21.285" rx="1.68" transform="translate(563.51 497.369)"/><text class="an" transform="translate(577.13 502.43)"><tspan x="-10.126" y="0">CREDIT CARD</tspan></text><rect class="m" width="4.898" height="4.898" rx="0.573" transform="translate(567 504.413)"/><line class="ao" x2="4.898" transform="translate(567 505.679)"/><line class="ao" x2="4.898" transform="translate(567 506.862)"/><line class="ao" x2="4.898" transform="translate(567 508.045)"/><rect class="ao" width="2.183" height="2.365" transform="translate(568.357 505.679)"/><line class="i" x2="26.565" transform="translate(567 511.743)"/><line class="i" x2="20.146" transform="translate(573.419 509.195)"/><rect class="f" width="1.739" height="1.739" transform="translate(567 513.602)"/><rect class="f" width="1.739" height="1.739" transform="translate(570.54 513.602)"/><rect class="f" width="1.739" height="1.739" transform="translate(574.081 513.602)"/><rect class="f" width="1.739" height="1.739" transform="translate(577.621 513.602)"/><rect class="f" width="1.739" height="1.739" transform="translate(581.162 513.602)"/><rect class="f" width="1.739" height="1.739" transform="translate(584.702 513.602)"/><rect class="f" width="1.739" height="1.739" transform="translate(588.243 513.602)"/><rect class="f" width="1.739" height="1.739" transform="translate(591.783 513.602)"/><g class="ap"><circle class="aq" cx="33.757" cy="33.757" r="33.757" transform="translate(582.357 432.285)"/><circle class="ar" cx="27.67" cy="27.67" r="27.67" transform="translate(588.445 438.372)"/><text class="as" transform="translate(615.609 481.416)"><tspan x="-12.178" y="0">$</tspan></text><text class="at" transform="translate(616.351 468.765)"><tspan x="-29.432" y="0">PAYMENT</tspan></text><text class="at" transform="translate(615.689 468.103)"><tspan x="-29.432" y="0">PAYMENT</tspan></text><text class="au" transform="translate(616.568 477.774)"><tspan x="-22.537" y="0">METHODS</tspan></text><text class="au" transform="translate(615.906 477.112)"><tspan x="-22.537" y="0">METHODS</tspan></text></g><circle class="v" cx="33.757" cy="33.757" r="33.757" transform="translate(581.365 431.292)"/><circle class="av" cx="27.67" cy="27.67" r="27.67" transform="translate(587.452 437.38)"/><text class="aw" transform="translate(614.616 480.423)"><tspan x="-12.178" y="0">$</tspan></text><g class="ap"><text class="at" transform="translate(615.358 467.772)"><tspan x="-29.432" y="0">PAYMENT</tspan></text></g><text class="ax" transform="translate(614.697 467.11)"><tspan x="-29.432" y="0">PAYMENT</tspan></text><g class="ap"><text class="au" transform="translate(615.575 476.781)"><tspan x="-22.537" y="0">METHODS</tspan></text></g><text class="ay" transform="translate(614.913 476.119)"><tspan x="-22.537" y="0">METHODS</tspan></text></g></svg>