<svg xmlns="http://www.w3.org/2000/svg" xmlns:xlink="http://www.w3.org/1999/xlink" width="230" height="230" viewBox="0 0 230 230"><defs><style>.a,.b{fill:#fff;}.b{opacity:0;}.c{fill:#0764b0;}.d{fill:#7a98bb;}.e{filter:url(#a);}</style><filter id="a" x="0" y="0" width="230" height="230" filterUnits="userSpaceOnUse"><feOffset input="SourceAlpha"/><feGaussianBlur stdDeviation="5" result="b"/><feFlood flood-opacity="0.161"/><feComposite operator="in" in2="b"/><feComposite in="SourceGraphic"/></filter></defs><g transform="translate(15 15)"><g class="e" transform="matrix(1, 0, 0, 1, -15, -15)"><rect class="a" width="200" height="200" rx="33.884" transform="translate(15 15)"/></g><g transform="translate(18.945 18.944)"><circle class="b" cx="81.055" cy="81.055" r="81.055"/><g transform="translate(0.021 0.29)"><path class="c" d="M-5927.424,24925.143c0,2.393-.11,4.758-.311,7.1,0,0-.552,5.078-1.014,7.512-.151.891-.324,1.766-.524,2.635a123.376,123.376,0,0,0-15.5-5.094,126.967,126.967,0,0,0-31.29-4.023h-.689c-1.676,0-3.338,0-4.986.1,1.883-.379,3.758-.691,5.662-.986a162.151,162.151,0,0,1,24.316-1.818c1.256,0,2.5,0,3.746.053,1.379,0,2.759.063,4.137.131.042-.482.083-.973.111-1.453.092-1.379.135-2.762.13-4.139v-.932a64.78,64.78,0,0,0-32.414-55.236,63.631,63.631,0,0,0-8.1-3.955v49.652c-2.89-.213-5.821-.309-8.779-.309-2.5,0-4.973.068-7.435.221v-70.062a80.977,80.977,0,0,1,16.213,3.311,77.817,77.817,0,0,1,8.1,3.043A81.045,81.045,0,0,1-5927.424,24925.143Z" transform="translate(6089.513 -24844.385)"/><path class="d" d="M-5920.285,24988.373a81.19,81.19,0,0,1-45.566,52.145v-18.129a65,65,0,0,0,30.1-38.918A123.586,123.586,0,0,1-5920.285,24988.373Z" transform="translate(6079.306 -24885.477)"/><path class="c" d="M-5984.168,24964.383v73.531a80.255,80.255,0,0,1-16.213,3.3v-74.082A152.805,152.805,0,0,1-5984.168,24964.383Z" transform="translate(6089.519 -24879.832)"/><path class="d" d="M-6013.5,24923.492q-4.014-.533-8.1-.793c-2.889-.221-5.82-.311-8.779-.311-2.5,0-4.972.063-7.434.215a123.63,123.63,0,0,0-14.856,1.729V24876.6a48.555,48.555,0,0,0-16.214,5.254v46.449c-2.759.861-5.441,1.807-8.1,2.863a127.115,127.115,0,0,0-29.725,16.551,62.944,62.944,0,0,1-2.034-6.539,65.079,65.079,0,0,1-2.014-16.09,64.826,64.826,0,0,1,33.8-56.924,63.9,63.9,0,0,1,8.1-3.73,64.131,64.131,0,0,1,16.214-3.834v-16.277a80.426,80.426,0,0,0-16.214,3.021,79.352,79.352,0,0,0-8.1,2.869,81.058,81.058,0,0,0-49.987,74.875,81.024,81.024,0,0,0,4.958,27.979c.69,1.945,1.5,3.85,2.366,5.73a81.17,81.17,0,0,0,7.076,12.416q1.586,2.282,3.324,4.455c.758.957,1.551,1.9,2.365,2.826.483.566,1,1.119,1.5,1.668a81.1,81.1,0,0,0,28.4,19.795v-17.932a64.735,64.735,0,0,1-16.607-13.014c-.482-.51-.958-1.035-1.379-1.578a40.834,40.834,0,0,1-2.606-3.215c-.821-1.146-1.731-2.34-2.517-3.551a159.5,159.5,0,0,1,23.131-14.709c2.662-1.381,5.358-2.721,8.1-3.975v60.828a79.6,79.6,0,0,0,16.214,3.027V24935.7a151.461,151.461,0,0,1,14.854-4.068,153.356,153.356,0,0,1,16.214-2.758q4.035-.5,8.1-.746,5.352-.357,10.807-.365,5.172,0,10.255.338A126.743,126.743,0,0,0-6013.5,24923.492Z" transform="translate(6126.957 -24844.32)"/></g></g></g></svg>