<svg xmlns="http://www.w3.org/2000/svg" xmlns:xlink="http://www.w3.org/1999/xlink" width="182" height="56" viewBox="0 0 182 56"><defs><style>.a,.d{fill:#fff;}.a{stroke:#707070;}.b{clip-path:url(#a);}.c{fill:#a6a6a6;}.e{fill:url(#b);}.f{fill:url(#c);}.g{fill:url(#d);}.h{fill:url(#e);}.i{fill:url(#f);}.j{fill:url(#g);}.k{fill:url(#h);}.l{fill:url(#i);}.m{fill:url(#j);}.n{fill:#404040;}.o{fill:url(#k);}.p{fill:url(#l);}.q{fill:url(#m);}</style><clipPath id="a"><rect class="a" width="182" height="56" transform="translate(1269 767)"/></clipPath><linearGradient id="b" x1="-14.043" y1="4.625" x2="-14.015" y2="4.625" gradientUnits="objectBoundingBox"><stop offset="0" stop-color="#00a0ff"/><stop offset="0.007" stop-color="#00a1ff"/><stop offset="0.26" stop-color="#00beff"/><stop offset="0.512" stop-color="#00d2ff"/><stop offset="0.76" stop-color="#00dfff"/><stop offset="1" stop-color="#00e3ff"/></linearGradient><linearGradient id="c" x1="-19.215" y1="12.853" x2="-19.178" y2="12.853" gradientUnits="objectBoundingBox"><stop offset="0" stop-color="#ffe000"/><stop offset="0.409" stop-color="#ffbd00"/><stop offset="0.775" stop-color="orange"/><stop offset="1" stop-color="#ff9c00"/></linearGradient><linearGradient id="d" x1="-10.902" y1="7.976" x2="-10.879" y2="7.976" gradientUnits="objectBoundingBox"><stop offset="0" stop-color="#ff3a44"/><stop offset="1" stop-color="#c31162"/></linearGradient><linearGradient id="e" x1="-10.718" y1="8.884" x2="-10.695" y2="8.884" gradientUnits="objectBoundingBox"><stop offset="0" stop-color="#32a071"/><stop offset="0.068" stop-color="#2da771"/><stop offset="0.476" stop-color="#15cf74"/><stop offset="0.801" stop-color="#06e775"/><stop offset="1" stop-color="#00f076"/></linearGradient><linearGradient id="f" x1="-10.88" y1="11.287" x2="-10.857" y2="11.287" gradientUnits="objectBoundingBox"><stop offset="0" stop-color="#cc2e36"/><stop offset="1" stop-color="#9c0e4e"/></linearGradient><linearGradient id="g" x1="-327.674" y1="58.774" x2="-327.007" y2="58.774" gradientUnits="objectBoundingBox"><stop offset="0" stop-color="#008de0"/><stop offset="0.007" stop-color="#008de0"/><stop offset="0.26" stop-color="#00a7e0"/><stop offset="0.512" stop-color="#00b8e0"/><stop offset="0.76" stop-color="#00c4e0"/><stop offset="1" stop-color="#00c7e0"/></linearGradient><linearGradient id="h" x1="-2458.515" y1="1220.281" x2="-2453.515" y2="1220.281" gradientUnits="objectBoundingBox"><stop offset="0" stop-color="#e0333c"/><stop offset="1" stop-color="#ab0f56"/></linearGradient><linearGradient id="i" x1="-33.105" y1="24.396" x2="-33.043" y2="24.396" gradientUnits="objectBoundingBox"><stop offset="0" stop-color="#e0c500"/><stop offset="0.409" stop-color="#e0a600"/><stop offset="0.775" stop-color="#e09100"/><stop offset="1" stop-color="#e08900"/></linearGradient><linearGradient id="j" x1="-703.011" y1="0.5" x2="-698.011" y2="0.5" xlink:href="#h"/><linearGradient id="k" x1="-351.081" y1="70.511" x2="-350.367" y2="70.511" gradientUnits="objectBoundingBox"><stop offset="0" stop-color="#40b8ff"/><stop offset="0.007" stop-color="#40b9ff"/><stop offset="0.26" stop-color="#40ceff"/><stop offset="0.512" stop-color="#40ddff"/><stop offset="0.76" stop-color="#40e7ff"/><stop offset="1" stop-color="#40eaff"/></linearGradient><linearGradient id="l" x1="-33.099" y1="25.387" x2="-33.037" y2="25.387" gradientUnits="objectBoundingBox"><stop offset="0" stop-color="#ffe840"/><stop offset="0.409" stop-color="#ffce40"/><stop offset="0.775" stop-color="#ffbc40"/><stop offset="1" stop-color="#ffb540"/></linearGradient><linearGradient id="m" x1="-10.666" y1="13.101" x2="-10.643" y2="13.101" gradientUnits="objectBoundingBox"><stop offset="0" stop-color="#65b895"/><stop offset="0.068" stop-color="#62bd95"/><stop offset="0.476" stop-color="#50db97"/><stop offset="0.801" stop-color="#44ed98"/><stop offset="1" stop-color="#40f498"/></linearGradient></defs><g class="b" transform="translate(-1269 -767)"><g transform="translate(1431.304 654.885)"><path d="M12.964,167.091H-155.573a6.767,6.767,0,0,1-6.732-6.732V119.921a6.767,6.767,0,0,1,6.732-6.732H12.964a6.767,6.767,0,0,1,6.732,6.732v40.439a6.767,6.767,0,0,1-6.732,6.732"/><path class="c" d="M12.964,114.236a5.682,5.682,0,0,1,5.684,5.684v40.439a5.682,5.682,0,0,1-5.684,5.684H-155.573a5.682,5.682,0,0,1-5.684-5.684V119.921a5.682,5.682,0,0,1,5.684-5.684H12.964m0-1.1H-155.573a6.767,6.767,0,0,0-6.732,6.732V160.31a6.767,6.767,0,0,0,6.732,6.732H12.964A6.767,6.767,0,0,0,19.7,160.31V119.871A6.767,6.767,0,0,0,12.964,113.139Z"/><path class="d" d="M-98.38,126.951a3.652,3.652,0,0,1-1,2.693,3.906,3.906,0,0,1-2.992,1.2,4.222,4.222,0,0,1-2.992-1.2,4.1,4.1,0,0,1-1.247-2.992,3.917,3.917,0,0,1,1.247-2.992,4.059,4.059,0,0,1,2.992-1.2,3.613,3.613,0,0,1,1.645.349,3.5,3.5,0,0,1,1.247.9l-.7.7a2.732,2.732,0,0,0-2.194-.947,3.011,3.011,0,0,0-2.194.9,3.233,3.233,0,0,0-.947,2.344,3.046,3.046,0,0,0,.947,2.344,3.011,3.011,0,0,0,2.194.9,3.044,3.044,0,0,0,2.244-.9,2.777,2.777,0,0,0,.7-1.645h-2.942v-.947h3.939A1.39,1.39,0,0,1-98.38,126.951Z"/><path class="d" d="M-98.38,126.951h0a3.859,3.859,0,0,1-1.047,2.643h0a3.87,3.87,0,0,1-2.942,1.2,4.025,4.025,0,0,1-2.942-1.2,4.059,4.059,0,0,1-1.2-2.992,4.059,4.059,0,0,1,1.2-2.992,4.026,4.026,0,0,1,2.942-1.2,3.911,3.911,0,0,1,1.645.349,2.876,2.876,0,0,1,1.247.9l.05-.05-.05-.05-.7.7.05.05.05-.05a2.8,2.8,0,0,0-2.244-1,3.21,3.21,0,0,0-2.244.9,3.083,3.083,0,0,0-.947,2.393,3.232,3.232,0,0,0,.947,2.393,3.21,3.21,0,0,0,2.244.9,3.159,3.159,0,0,0,2.294-.9,2.5,2.5,0,0,0,.7-1.645v-.05h-2.942V126.4h3.889v-.05h-.05a2.428,2.428,0,0,0,.05.6h.05a2.427,2.427,0,0,0-.05-.6v-.05h-3.989v1.047h2.992v-.05h-.05a2.478,2.478,0,0,1-.648,1.6,3.044,3.044,0,0,1-2.244.9,3.094,3.094,0,0,1-2.194-.9,3.08,3.08,0,0,1-.9-2.294,3.08,3.08,0,0,1,.9-2.294,3.011,3.011,0,0,1,2.194-.9,2.666,2.666,0,0,1,2.194.947l.05.05.8-.8-.05-.05a2.762,2.762,0,0,0-1.3-.9,3.976,3.976,0,0,0-1.7-.349,3.917,3.917,0,0,0-2.992,1.247,4.025,4.025,0,0,0-1.247,3.042,4.025,4.025,0,0,0,1.247,3.042,4.272,4.272,0,0,0,2.992,1.247,3.906,3.906,0,0,0,2.992-1.2l-.05-.05.05.05a3.441,3.441,0,0,0,.947-2.742Z"/><path class="d" d="M-92.147,123.561h-3.69v2.593h3.291v.947h-3.291v2.593h3.69v1h-4.737v-8.078h4.737Z"/><path class="d" d="M-92.147,123.561v-.05h-3.74V126.2H-92.6v.848h-3.291v2.693h3.69v.9h-4.637v-7.978H-92.2v.9h.05v0h.05v-1h-4.837v8.178H-92.1v-1.1h-3.69v-2.493H-92.5V126.1h-3.291V123.61h3.69v-.05Z"/><path class="d" d="M-87.759,130.691h-1.047v-7.13H-91.1v-.947h5.585v.947h-2.244Z"/><path class="d" d="M-87.759,130.691v-.05h-1v-7.13H-91.05v-.848h5.485v.848h-2.244v7.18h.05v0h.05V123.61h2.244v-1.047H-91.15v1.047h2.294v7.13h1.147v-.05Z"/><rect class="d" width="1.047" height="8.078" transform="translate(-81.476 122.613)"/><path class="d" d="M-81.476,130.691h.05v-8.028h.9v7.978h-.947v.05h0v.05h1.047v-8.178h-1.1v8.178h.05Z"/><path class="d" d="M-75.842,130.691h-1.047v-7.13h-2.244v-.947H-73.6v.947h-2.244Z"/><path class="d" d="M-75.842,130.691v-.05h-1v-7.13h-2.244v-.848h5.435v.848h-2.244v7.18h.05v0h.05V123.61h2.244v-1.047h-5.635v1.047h2.244v7.13h1.147v-.05Z"/><path class="d" d="M-63.077,129.644a4.071,4.071,0,0,1-2.942,1.247,3.739,3.739,0,0,1-2.942-1.247,4.059,4.059,0,0,1-1.2-2.992,4.059,4.059,0,0,1,1.2-2.992,4.071,4.071,0,0,1,2.942-1.247,3.81,3.81,0,0,1,2.942,1.247,4.059,4.059,0,0,1,1.2,2.992A4.223,4.223,0,0,1-63.077,129.644Zm-5.136-.7a3.011,3.011,0,0,0,2.194.9,3.011,3.011,0,0,0,2.194-.9,3.2,3.2,0,0,0,.9-2.344,3.277,3.277,0,0,0-.9-2.344,3.011,3.011,0,0,0-2.194-.9,3.011,3.011,0,0,0-2.194.9,3.2,3.2,0,0,0-.9,2.344A3.2,3.2,0,0,0-68.213,128.946Z"/><path class="d" d="M-63.077,129.644h0a4.025,4.025,0,0,1-2.942,1.2,4.025,4.025,0,0,1-2.942-1.2,4.026,4.026,0,0,1-1.2-2.942,4.026,4.026,0,0,1,1.2-2.942,3.947,3.947,0,0,1,2.942-1.2,4.026,4.026,0,0,1,2.942,1.2,4.026,4.026,0,0,1,1.2,2.942,4.679,4.679,0,0,1-1.2,2.942h0a3.917,3.917,0,0,0,1.247-2.992,4.255,4.255,0,0,0-1.2-3.042,3.917,3.917,0,0,0-2.992-1.247,3.917,3.917,0,0,0-2.992,1.247,4.255,4.255,0,0,0-1.2,3.042,4.255,4.255,0,0,0,1.2,3.042,3.917,3.917,0,0,0,2.992,1.247,3.951,3.951,0,0,0,2.942-1.3Zm-5.136-.7h0a2.732,2.732,0,0,0,2.194.947,2.905,2.905,0,0,0,2.244-.947,3.2,3.2,0,0,0,.9-2.344,3.2,3.2,0,0,0-.9-2.344,3.087,3.087,0,0,0-2.244-.947,2.9,2.9,0,0,0-2.244.947,3.2,3.2,0,0,0-.9,2.344,2.907,2.907,0,0,0,.947,2.344h0a3.466,3.466,0,0,1-.848-2.344,3.08,3.08,0,0,1,.9-2.294,2.9,2.9,0,0,1,2.144-.9,2.823,2.823,0,0,1,2.144.9,3.08,3.08,0,0,1,.9,2.294,3.08,3.08,0,0,1-.9,2.294,2.9,2.9,0,0,1-2.144.9,3.178,3.178,0,0,1-2.194-.848Z"/><path class="d" d="M-60.434,130.691v-8.078h1.3L-55.2,128.9h0v-6.283h1v8.078h-1.047l-4.139-6.632h-.05l.05,1.6v5.036Z"/><path class="d" d="M-60.434,130.691h.05v-8.028h1.2l3.939,6.283h.1v-6.283h.9v7.978h-1l-4.089-6.632h-.15l.05,1.645v4.986h-1v.05h0v.05h1.1v-5.086l-.05-1.6h-.05v.05h.05l4.089,6.632h1.147v-8.178h-1.1V128.9h.05v-.05h0l-3.939-6.283h-1.346v8.178h.05Z"/><path class="d" d="M-70.456,142.459a5.612,5.612,0,0,0-5.734,5.734,5.672,5.672,0,0,0,5.734,5.734,5.642,5.642,0,0,0,5.734-5.734A5.612,5.612,0,0,0-70.456,142.459Zm0,9.225a3.328,3.328,0,0,1-3.241-3.49,3.328,3.328,0,0,1,3.241-3.49,3.3,3.3,0,0,1,3.241,3.49A3.328,3.328,0,0,1-70.456,151.683Zm-12.565-9.225a5.612,5.612,0,0,0-5.734,5.734,5.672,5.672,0,0,0,5.734,5.734,5.642,5.642,0,0,0,5.734-5.734A5.612,5.612,0,0,0-83.022,142.459Zm0,9.225a3.328,3.328,0,0,1-3.241-3.49,3.328,3.328,0,0,1,3.241-3.49,3.3,3.3,0,0,1,3.241,3.49A3.328,3.328,0,0,1-83.022,151.683Zm-14.909-7.43V146.7H-92.1a4.939,4.939,0,0,1-1.346,3.042,5.992,5.992,0,0,1-4.488,1.8,6.385,6.385,0,0,1-6.382-6.482,6.385,6.385,0,0,1,6.382-6.482,6.113,6.113,0,0,1,4.388,1.745l1.7-1.7a8.429,8.429,0,0,0-6.083-2.443,9.034,9.034,0,0,0-9.025,8.925,9.067,9.067,0,0,0,9.025,8.925,8.185,8.185,0,0,0,6.233-2.493,8.089,8.089,0,0,0,2.094-5.684,6.592,6.592,0,0,0-.15-1.5h-8.178Zm61.082,1.895a5.334,5.334,0,0,0-4.887-3.64,5.45,5.45,0,0,0-5.385,5.734,5.631,5.631,0,0,0,5.684,5.734,5.7,5.7,0,0,0,4.787-2.543l-1.945-1.3a3.31,3.31,0,0,1-2.842,1.6,2.944,2.944,0,0,1-2.792-1.745l7.679-3.191Zm-7.828,1.895a3.151,3.151,0,0,1,2.992-3.341,2.282,2.282,0,0,1,2.144,1.2Zm-6.233,5.535h2.543V136.724H-50.91Zm-4.139-9.823h-.1a3.877,3.877,0,0,0-3.042-1.3,5.722,5.722,0,0,0-5.485,5.734,5.722,5.722,0,0,0,5.485,5.734,4.04,4.04,0,0,0,3.042-1.3h.1v.848c0,2.194-1.2,3.391-3.042,3.391a3.165,3.165,0,0,1-2.892-2.044l-2.194.9a5.515,5.515,0,0,0,5.086,3.391c2.942,0,5.435-1.745,5.435-5.984V142.857h-2.393v.9Zm-2.892,7.928a3.275,3.275,0,0,1-3.191-3.441,3.29,3.29,0,0,1,3.191-3.49,3.238,3.238,0,0,1,3.042,3.49A3.132,3.132,0,0,1-57.941,151.683Zm32.91-14.959h-6.033v16.854h2.493V147.2h3.49a5.328,5.328,0,0,0,5.535-5.236A5.347,5.347,0,0,0-25.031,136.724Zm.05,8.128h-3.59v-5.784h3.59a2.9,2.9,0,0,1,2.942,2.892A2.9,2.9,0,0,1-24.981,144.852Zm15.557-2.393a4.7,4.7,0,0,0-4.488,2.593l2.244.947a2.366,2.366,0,0,1,2.294-1.247A2.42,2.42,0,0,1-6.732,146.9v.15a5.758,5.758,0,0,0-2.643-.648c-2.393,0-4.837,1.346-4.837,3.79,0,2.244,1.995,3.69,4.188,3.69a3.451,3.451,0,0,0,3.191-1.645h.1v1.3h2.443v-6.482C-4.338,144.1-6.582,142.459-9.424,142.459Zm-.3,9.225c-.848,0-1.995-.4-1.995-1.446,0-1.3,1.446-1.8,2.643-1.8a4.7,4.7,0,0,1,2.294.548A2.967,2.967,0,0,1-9.723,151.683Zm14.261-8.876-2.892,7.33h-.1l-2.992-7.33H-4.139L.349,153.03l-2.543,5.684H.449L7.38,142.808Zm-22.688,10.77h2.493V136.724H-18.15Z"/><path class="e" d="M-148.841,124.957h0m0,0h0m.7-1.546a2.61,2.61,0,0,0-.7,1.995v29.419a2.627,2.627,0,0,0,.648,1.895l.1.1,16.7-16.7-16.754-16.7"/><path class="f" d="M-117.926,140.913a2.674,2.674,0,0,1-1.2,1.147l-6.582,3.74-.15.05h0l.15-.05,6.582-3.74a3.321,3.321,0,0,0,1.2-1.147m-7.928-6.382-5.585,5.585,5.585,5.585,6.732-3.839a2.425,2.425,0,0,0,1.4-1.745h0a2.554,2.554,0,0,0-1.4-1.745l-6.731-3.839"/><path class="g" d="M-148.143,157.019h0a1.7,1.7,0,0,0,1.2.449h0a1.787,1.787,0,0,1-1.2-.449m-.1-.1.1.1-.1-.1m16.8-16.8h0l-16.7,16.7h0l-.1.1.1-.1a1.7,1.7,0,0,0,1.2.449,3.178,3.178,0,0,0,1.5-.449L-125.9,145.7l.15.15-.15-.15-5.535-5.585"/><path class="h" d="M-146.946,122.962a1.7,1.7,0,0,0-1.2.449l16.7,16.7,5.585-5.585L-145.4,123.411a3.524,3.524,0,0,0-1.546-.449m0-.2h0a3.178,3.178,0,0,1,1.5.449l19.7,11.169h0l-19.7-11.169a3.177,3.177,0,0,0-1.5-.449"/><path d="M-148.143,157.019h0m2.693,0a3.663,3.663,0,0,1-1.3.449,3.36,3.36,0,0,0,1.3-.449m-2.792-.1h0"/><path class="i" d="M-125.854,145.7-145.4,156.819a3.178,3.178,0,0,1-1.5.449,1.7,1.7,0,0,1-1.2-.449l-.1.1h0l.1.1h0a1.7,1.7,0,0,0,1.2.449h.249a3.663,3.663,0,0,0,1.3-.449l19.7-11.169-.2-.15"/><path d="M-148.841,155.024h0a2.627,2.627,0,0,0,.648,1.895h0a2.429,2.429,0,0,1-.648-1.895"/><path class="j" d="M-148.841,154.825v.2a2.627,2.627,0,0,0,.648,1.895l.1-.1-.1-.1a2.429,2.429,0,0,1-.648-1.895"/><path class="k" d="M-148.143,156.819l-.1.1h0l.1-.1h0"/><path d="M-117.727,140.115h0a1.579,1.579,0,0,1-.2.8,1.579,1.579,0,0,0,.2-.8"/><path class="l" d="M-117.727,140.115a2.554,2.554,0,0,1-1.4,1.745l-6.732,3.839.15.15,6.582-3.74a2.957,2.957,0,0,0,1.2-1.147,1.9,1.9,0,0,0,.2-.848"/><path class="m" d="M-125.854,145.7h0l.1.1-.1-.1"/><path class="n" d="M-125.755,134.431h0l6.582,3.74a2.355,2.355,0,0,1,1.4,1.945h0a2.355,2.355,0,0,0-1.4-1.945l-6.582-3.74m-23.087-9.474h0m0,0h0m1.895-2.194c-1.047,0-1.8.8-1.895,2.194a2.722,2.722,0,0,1,.6-1.645l.1-.1h0a1.7,1.7,0,0,1,1.2-.449"/><path class="o" d="M-148.243,123.311h0a2.6,2.6,0,0,0-.6,1.645h0v.449a2.61,2.61,0,0,1,.7-1.995l-.1-.1m.1-.1h0"/><path class="p" d="M-125.755,134.431l-.15.15,6.732,3.839a2.425,2.425,0,0,1,1.4,1.745,2.355,2.355,0,0,0-1.4-1.945l-6.582-3.79h0"/><path class="q" d="M-146.946,122.763h0a1.7,1.7,0,0,0-1.2.449h0l-.1.1.1.1a1.7,1.7,0,0,1,1.2-.449,3.178,3.178,0,0,1,1.5.449L-125.9,134.53l.15-.15h0l-19.7-11.169a3.177,3.177,0,0,0-1.5-.449"/></g></g></svg>