<svg xmlns="http://www.w3.org/2000/svg" xmlns:xlink="http://www.w3.org/1999/xlink" width="182" height="56" viewBox="0 0 182 56"><defs><style>.a,.d{fill:#fff;}.a{stroke:#707070;}.b{clip-path:url(#a);}.c{fill:#a6a6a6;}</style><clipPath id="a"><rect class="a" width="182" height="56" transform="translate(1044 767)"/></clipPath></defs><g class="b" transform="translate(-1044 -767)"><g transform="translate(1010.342 670.343)"><path class="c" d="M209.175,151.633H40.04a6.427,6.427,0,0,1-6.382-6.382V104.064a6.4,6.4,0,0,1,6.382-6.382H209.175a6.481,6.481,0,0,1,6.482,6.382v41.187A6.481,6.481,0,0,1,209.175,151.633Z"/><path d="M214.361,145.251a5.182,5.182,0,0,1-5.186,5.186H40.04a5.182,5.182,0,0,1-5.186-5.186V104.064a5.214,5.214,0,0,1,5.186-5.186H209.175a5.214,5.214,0,0,1,5.186,5.186Z"/><path class="d" d="M74.3,124.358a7.787,7.787,0,0,1,3.74-6.582,7.8,7.8,0,0,0-6.283-3.391c-2.643-.3-5.236,1.6-6.582,1.6-1.4,0-3.441-1.546-5.684-1.5a8.423,8.423,0,0,0-7.081,4.288c-3.042,5.285-.8,13.064,2.144,17.352,1.446,2.094,3.191,4.438,5.435,4.338,2.194-.1,2.992-1.4,5.635-1.4s3.391,1.4,5.684,1.346c2.344-.05,3.839-2.094,5.236-4.238a16.472,16.472,0,0,0,2.393-4.887A7.327,7.327,0,0,1,74.3,124.358Z"/><path class="d" d="M69.958,111.593a7.56,7.56,0,0,0,1.745-5.535,8.07,8.07,0,0,0-5.086,2.643,7.2,7.2,0,0,0-1.8,5.285A6.473,6.473,0,0,0,69.958,111.593Z"/><path class="d" d="M105.959,140.165h-3.042l-1.7-5.285H95.388l-1.6,5.285H90.8l5.784-17.951h3.59Zm-5.236-7.479L99.227,128c-.15-.5-.449-1.6-.9-3.391h-.05c-.2.748-.449,1.895-.848,3.391l-1.5,4.687Z"/><path class="d" d="M120.818,133.533a7.416,7.416,0,0,1-1.8,5.236,5.169,5.169,0,0,1-3.989,1.7,3.967,3.967,0,0,1-3.69-1.845h-.05v6.831H108.4V131.489c0-1.4-.05-2.792-.1-4.238h2.543l.15,2.044h.05A4.749,4.749,0,0,1,115.433,127a4.865,4.865,0,0,1,3.839,1.8A6.951,6.951,0,0,1,120.818,133.533Zm-2.892.1a5.388,5.388,0,0,0-.848-3.092,2.924,2.924,0,0,0-2.493-1.3,3.2,3.2,0,0,0-1.945.7,3.259,3.259,0,0,0-1.147,1.845,3.352,3.352,0,0,0-.15.9v2.144a3.6,3.6,0,0,0,.848,2.393,3.177,3.177,0,0,0,4.787-.3A5.378,5.378,0,0,0,117.926,133.633Z"/><path class="d" d="M135.727,133.533a7.416,7.416,0,0,1-1.8,5.236,5.169,5.169,0,0,1-3.989,1.7,3.967,3.967,0,0,1-3.69-1.845h-.05v6.831h-2.892V131.489c0-1.4-.05-2.792-.1-4.238h2.543l.15,2.044h.05A4.749,4.749,0,0,1,130.342,127a4.865,4.865,0,0,1,3.839,1.8A7.21,7.21,0,0,1,135.727,133.533Zm-2.942.1a5.387,5.387,0,0,0-.848-3.092,2.924,2.924,0,0,0-2.493-1.3,3.2,3.2,0,0,0-1.945.7,3.259,3.259,0,0,0-1.147,1.845,3.352,3.352,0,0,0-.15.9v2.144a3.6,3.6,0,0,0,.848,2.393,3.177,3.177,0,0,0,4.787-.3A5.071,5.071,0,0,0,132.785,133.633Z"/><path class="d" d="M152.332,135.129a4.822,4.822,0,0,1-1.6,3.74,7.013,7.013,0,0,1-4.887,1.546,8.4,8.4,0,0,1-4.637-1.1l.648-2.393A7.955,7.955,0,0,0,146,138.071a3.867,3.867,0,0,0,2.543-.748,2.412,2.412,0,0,0,.9-1.945,2.481,2.481,0,0,0-.748-1.845,6.986,6.986,0,0,0-2.493-1.4c-3.141-1.147-4.687-2.892-4.687-5.136a4.57,4.57,0,0,1,1.645-3.64,6.441,6.441,0,0,1,4.388-1.4,9.034,9.034,0,0,1,4.089.848l-.7,2.344a7.033,7.033,0,0,0-3.441-.848,3.392,3.392,0,0,0-2.344.748,2.084,2.084,0,0,0-.7,1.645,2.06,2.06,0,0,0,.848,1.745,9.085,9.085,0,0,0,2.593,1.4,8.153,8.153,0,0,1,3.391,2.194A4.553,4.553,0,0,1,152.332,135.129Z"/><path class="d" d="M161.855,129.395h-3.191v6.283c0,1.6.549,2.393,1.7,2.393a4.877,4.877,0,0,0,1.3-.15l.1,2.194a6.767,6.767,0,0,1-2.244.3,3.312,3.312,0,0,1-2.643-1.047,5.043,5.043,0,0,1-.947-3.49v-6.532h-1.895V127.2h1.895v-2.393l2.842-.848V127.2h3.191v2.194Z"/><path class="d" d="M176.166,133.583a6.947,6.947,0,0,1-1.7,4.887,6.2,6.2,0,0,1-4.737,1.995,5.867,5.867,0,0,1-4.538-1.895,6.778,6.778,0,0,1-1.7-4.787,7.191,7.191,0,0,1,1.745-4.936,6.621,6.621,0,0,1,9.275,0A6.85,6.85,0,0,1,176.166,133.583Zm-2.992.1a6.17,6.17,0,0,0-.748-3.092,2.794,2.794,0,0,0-2.593-1.546,2.867,2.867,0,0,0-2.643,1.546,6.1,6.1,0,0,0-.748,3.141,6.171,6.171,0,0,0,.748,3.092,2.845,2.845,0,0,0,2.593,1.546,2.949,2.949,0,0,0,2.593-1.6A6.053,6.053,0,0,0,173.174,133.683Z"/><path class="d" d="M185.49,129.744a5.5,5.5,0,0,0-.9-.1,2.773,2.773,0,0,0-2.344,1.147,4.236,4.236,0,0,0-.7,2.543v6.781h-2.892l.05-8.876c0-1.5-.05-2.842-.1-4.089H181.1l.1,2.493h.1a4.385,4.385,0,0,1,1.446-2.044,3.637,3.637,0,0,1,2.094-.7,3.066,3.066,0,0,1,.7.05v2.792Z"/><path class="d" d="M198.355,133.084a9.157,9.157,0,0,1-.1,1.3h-8.626a3.851,3.851,0,0,0,1.247,2.942,4.313,4.313,0,0,0,2.842.9,9.672,9.672,0,0,0,3.49-.6l.449,1.995a10.693,10.693,0,0,1-4.338.8,5.953,5.953,0,0,1-6.432-6.482,7.573,7.573,0,0,1,1.6-4.887,5.5,5.5,0,0,1,4.538-2.094,4.823,4.823,0,0,1,4.238,2.094A7.27,7.27,0,0,1,198.355,133.084Zm-2.742-.748a3.885,3.885,0,0,0-.548-2.194,2.5,2.5,0,0,0-2.294-1.2,2.811,2.811,0,0,0-2.294,1.147,4.087,4.087,0,0,0-.848,2.244Z"/><path class="d" d="M99.776,111.195a4.442,4.442,0,0,1-1.446,3.59,5.669,5.669,0,0,1-3.74,1.1c-.8,0-1.5-.05-2.044-.1v-8.676a17.943,17.943,0,0,1,2.443-.2,5.393,5.393,0,0,1,3.49,1A4.316,4.316,0,0,1,99.776,111.195Zm-1.5.05a3.11,3.11,0,0,0-.8-2.344,3.252,3.252,0,0,0-2.393-.848,7,7,0,0,0-1.147.1v6.582a4.342,4.342,0,0,0,.947.05,3.318,3.318,0,0,0,2.493-.9A3.69,3.69,0,0,0,98.28,111.244Z"/><path class="d" d="M107.7,112.591a3.417,3.417,0,0,1-.848,2.393,2.975,2.975,0,0,1-2.344.947,2.767,2.767,0,0,1-2.244-.947,3.376,3.376,0,0,1-.848-2.344,3.637,3.637,0,0,1,.848-2.443,2.87,2.87,0,0,1,2.294-.947,2.767,2.767,0,0,1,2.244.947A3.4,3.4,0,0,1,107.7,112.591Zm-1.5.05a2.778,2.778,0,0,0-.4-1.5,1.371,1.371,0,0,0-1.247-.748,1.446,1.446,0,0,0-1.3.748,2.961,2.961,0,0,0-.4,1.546,2.778,2.778,0,0,0,.4,1.5,1.446,1.446,0,0,0,1.3.748,1.334,1.334,0,0,0,1.247-.8A2.5,2.5,0,0,0,106.208,112.641Z"/><path class="d" d="M118.275,109.449l-1.995,6.333h-1.3l-.848-2.742a17.356,17.356,0,0,1-.5-2.044h-.05a13.6,13.6,0,0,1-.5,2.044l-.9,2.742h-1.3L109,109.449h1.446l.7,3.042c.15.7.3,1.4.449,2.044h.05c.1-.548.3-1.2.548-2.044l.9-3.042h1.147l.848,2.992a18.081,18.081,0,0,1,.5,2.094h.05a19.937,19.937,0,0,1,.449-2.094l.748-2.992Z"/><path class="d" d="M125.6,115.782h-1.4v-3.64c0-1.1-.449-1.7-1.3-1.7a1.255,1.255,0,0,0-1,.449,1.643,1.643,0,0,0-.4,1.1v3.79h-1.4v-4.538c0-.548,0-1.147-.05-1.8h1.247l.05,1h.05a1.8,1.8,0,0,1,.748-.748,2.3,2.3,0,0,1,1.3-.349,2.03,2.03,0,0,1,1.5.6,2.755,2.755,0,0,1,.748,2.094v3.74Z"/><rect class="d" width="1.396" height="9.275" transform="translate(128.098 106.557)"/><path class="d" d="M137.821,112.591a3.417,3.417,0,0,1-.848,2.393,2.975,2.975,0,0,1-2.344.947,2.767,2.767,0,0,1-2.244-.947,3.376,3.376,0,0,1-.848-2.344,3.637,3.637,0,0,1,.848-2.443,2.87,2.87,0,0,1,2.294-.947,2.767,2.767,0,0,1,2.244.947A3.4,3.4,0,0,1,137.821,112.591Zm-1.5.05a2.778,2.778,0,0,0-.4-1.5,1.371,1.371,0,0,0-1.247-.748,1.446,1.446,0,0,0-1.3.748,2.961,2.961,0,0,0-.4,1.546,2.778,2.778,0,0,0,.4,1.5,1.446,1.446,0,0,0,1.3.748,1.334,1.334,0,0,0,1.247-.8A2.5,2.5,0,0,0,136.325,112.641Z"/><path class="d" d="M144.653,115.782h-1.247l-.1-.748h-.05a2.16,2.16,0,0,1-1.845.9,1.844,1.844,0,0,1-1.446-.6,1.766,1.766,0,0,1-.5-1.3,1.949,1.949,0,0,1,1-1.8,5.206,5.206,0,0,1,2.742-.6v-.1c0-.848-.449-1.247-1.3-1.247a2.9,2.9,0,0,0-1.645.449l-.3-.947a4.2,4.2,0,0,1,2.194-.549c1.645,0,2.493.9,2.493,2.643v2.344A5.2,5.2,0,0,0,144.653,115.782Zm-1.446-2.144v-1c-1.546-.05-2.344.4-2.344,1.3a1.032,1.032,0,0,0,.249.748,1.081,1.081,0,0,0,.7.249,1.354,1.354,0,0,0,.848-.3,1.258,1.258,0,0,0,.5-.748Z"/><path class="d" d="M152.681,115.782h-1.247l-.05-1h-.05a2.079,2.079,0,0,1-2.044,1.147,2.384,2.384,0,0,1-1.895-.9,3.57,3.57,0,0,1-.748-2.344,3.448,3.448,0,0,1,.848-2.493,2.556,2.556,0,0,1,1.945-.9,1.975,1.975,0,0,1,1.8.848h.05v-3.64h1.4v7.579A9.583,9.583,0,0,0,152.681,115.782Zm-1.446-2.643v-1.047a1.107,1.107,0,0,0-.05-.449,1.61,1.61,0,0,0-.5-.848,1.316,1.316,0,0,0-.947-.349,1.378,1.378,0,0,0-1.247.648,2.63,2.63,0,0,0-.449,1.6,2.475,2.475,0,0,0,.449,1.546,1.491,1.491,0,0,0,1.247.648,1.284,1.284,0,0,0,1.1-.5A2.307,2.307,0,0,0,151.235,113.139Z"/><path class="d" d="M164.747,112.591a3.417,3.417,0,0,1-.848,2.393,2.975,2.975,0,0,1-2.344.947,2.767,2.767,0,0,1-2.244-.947,3.376,3.376,0,0,1-.848-2.344,3.637,3.637,0,0,1,.848-2.443,2.87,2.87,0,0,1,2.294-.947,2.767,2.767,0,0,1,2.244.947A3.192,3.192,0,0,1,164.747,112.591Zm-1.446.05a2.778,2.778,0,0,0-.4-1.5,1.371,1.371,0,0,0-1.247-.748,1.446,1.446,0,0,0-1.3.748,2.961,2.961,0,0,0-.4,1.546,2.778,2.778,0,0,0,.4,1.5,1.446,1.446,0,0,0,1.3.748,1.334,1.334,0,0,0,1.247-.8A2.907,2.907,0,0,0,163.3,112.641Z"/><path class="d" d="M172.376,115.782h-1.4v-3.64c0-1.1-.449-1.7-1.3-1.7a1.255,1.255,0,0,0-1,.449,1.643,1.643,0,0,0-.4,1.1v3.79h-1.4v-4.538c0-.548,0-1.147-.05-1.8h1.247l.05,1h.05a1.8,1.8,0,0,1,.748-.748,2.3,2.3,0,0,1,1.3-.349,2.03,2.03,0,0,1,1.5.6,2.755,2.755,0,0,1,.748,2.094v3.74Z"/><path class="d" d="M181.85,110.5H180.3v3.091c0,.8.3,1.2.848,1.2a2.634,2.634,0,0,0,.648-.05l.05,1.047a3.427,3.427,0,0,1-1.1.15,1.622,1.622,0,0,1-1.3-.5,2.557,2.557,0,0,1-.449-1.7v-3.191h-1V109.5h.947v-1.147l1.4-.4v1.6H181.9l-.05.947Z"/><path class="d" d="M189.33,115.782h-1.4v-3.59c0-1.147-.449-1.7-1.3-1.7a1.375,1.375,0,0,0-1.346,1,1.537,1.537,0,0,0-.05.5v3.839h-1.4v-9.275h1.4V110.4h.05a2.149,2.149,0,0,1,1.895-1.047,1.918,1.918,0,0,1,1.446.6,2.859,2.859,0,0,1,.7,2.144v3.69Z"/><path class="d" d="M197.059,112.341a2.634,2.634,0,0,1-.05.648H192.77a1.775,1.775,0,0,0,.6,1.446,2.043,2.043,0,0,0,1.4.449,4.473,4.473,0,0,0,1.7-.3l.2,1a5.483,5.483,0,0,1-2.144.4,2.936,2.936,0,0,1-3.191-3.191,3.562,3.562,0,0,1,.8-2.393,2.661,2.661,0,0,1,2.244-1,2.51,2.51,0,0,1,2.094,1A2.925,2.925,0,0,1,197.059,112.341Zm-1.346-.4a2.538,2.538,0,0,0-.249-1.1,1.224,1.224,0,0,0-1.147-.6,1.4,1.4,0,0,0-1.147.6,1.944,1.944,0,0,0-.4,1.1Z"/></g></g></svg>